<?xml version="1.0" encoding="UTF-8" standalone="no"?>
<!DOCTYPE svg PUBLIC "-//W3C//DTD SVG 1.1//EN"
 "http://www.w3.org/Graphics/SVG/1.1/DTD/svg11.dtd">
<!-- Generated by graphviz version 14.0.1~dev.20251003.1243 (20251003.1243)
 -->
<!-- Pages: 1 -->
<svg width="363pt" height="537pt"
 viewBox="0.00 0.00 363.00 537.00" xmlns="http://www.w3.org/2000/svg" xmlns:xlink="http://www.w3.org/1999/xlink">
<g id="graph0" class="graph" transform="scale(1 1) rotate(0) translate(4 532.97)">
<g id="a_graph0"><a xlink:title=" ">
<polygon fill="white" stroke="none" points="-4,4 -4,-532.97 358.96,-532.97 358.96,4 -4,4"/>
</a>
</g>
<!-- 46 -->
<g id="node1" class="node">
<title>46</title>
<g id="a_node1"><a xlink:title="/Users/mps/projects/AI&#45;PROJECTS/mlx&#45;harmony/src/mlx_harmony/chat.py">
<polygon fill="#ff0000" stroke="#ff0000" points="147.71,-528.97 68.89,-528.97 68.89,-474.97 147.71,-474.97 147.71,-528.97"/>
<text xml:space="preserve" text-anchor="middle" x="108.3" y="-516.97" font-family="Arial" font-size="10.00" fill="#ffffff">chat:172:main</text>
<text xml:space="preserve" text-anchor="middle" x="108.3" y="-505.47" font-family="Arial" font-size="10.00" fill="#ffffff">100.00%</text>
<text xml:space="preserve" text-anchor="middle" x="108.3" y="-493.97" font-family="Arial" font-size="10.00" fill="#ffffff">(0.00%)</text>
<text xml:space="preserve" text-anchor="middle" x="108.3" y="-482.47" font-family="Arial" font-size="10.00" fill="#ffffff">1×</text>
</a>
</g>
</g>
<!-- 213 -->
<g id="node2" class="node">
<title>213</title>
<g id="a_node2"><a xlink:title="~">
<polygon fill="#fb1c01" stroke="#fb1c01" points="168.6,-433.97 0,-433.97 0,-379.98 168.6,-379.98 168.6,-433.97"/>
<text xml:space="preserve" text-anchor="middle" x="84.3" y="-421.97" font-family="Arial" font-size="10.00" fill="#ffffff">~:0:&lt;built&#45;in method builtins.input&gt;</text>
<text xml:space="preserve" text-anchor="middle" x="84.3" y="-410.47" font-family="Arial" font-size="10.00" fill="#ffffff">97.28%</text>
<text xml:space="preserve" text-anchor="middle" x="84.3" y="-398.97" font-family="Arial" font-size="10.00" fill="#ffffff">(97.28%)</text>
<text xml:space="preserve" text-anchor="middle" x="84.3" y="-387.48" font-family="Arial" font-size="10.00" fill="#ffffff">1×</text>
</a>
</g>
</g>
<!-- 46&#45;&gt;213 -->
<g id="edge1" class="edge">
<title>46&#45;&gt;213</title>
<path fill="none" stroke="#fb1c01" stroke-width="3.89" d="M101.49,-474.57C99.48,-466.81 97.24,-458.14 95.06,-449.67"/>
<polygon fill="#fb1c01" stroke="#fb1c01" stroke-width="3.89" points="98.43,-448.86 92.6,-440.14 91.72,-450.59 98.43,-448.86"/>
<text xml:space="preserve" text-anchor="middle" x="116.11" y="-457.97" font-family="Arial" font-size="10.00" fill="#fb1c01">97.28%</text>
<text xml:space="preserve" text-anchor="middle" x="116.11" y="-446.47" font-family="Arial" font-size="10.00" fill="#fb1c01">1×</text>
</g>
<!-- 526 -->
<g id="node3" class="node">
<title>526</title>
<g id="a_node3"><a xlink:title="/Users/mps/projects/AI&#45;PROJECTS/mlx&#45;harmony/src/mlx_harmony/generator.py">
<polygon fill="#0d1876" stroke="#0d1876" points="288.56,-433.97 178.04,-433.97 178.04,-379.98 288.56,-379.98 288.56,-433.97"/>
<text xml:space="preserve" text-anchor="middle" x="233.3" y="-421.97" font-family="Arial" font-size="10.00" fill="#ffffff">generator:34:__init__</text>
<text xml:space="preserve" text-anchor="middle" x="233.3" y="-410.47" font-family="Arial" font-size="10.00" fill="#ffffff">2.72%</text>
<text xml:space="preserve" text-anchor="middle" x="233.3" y="-398.97" font-family="Arial" font-size="10.00" fill="#ffffff">(0.00%)</text>
<text xml:space="preserve" text-anchor="middle" x="233.3" y="-387.48" font-family="Arial" font-size="10.00" fill="#ffffff">1×</text>
</a>
</g>
</g>
<!-- 46&#45;&gt;526 -->
<g id="edge2" class="edge">
<title>46&#45;&gt;526</title>
<path fill="none" stroke="#0d1876" stroke-width="0.5" d="M143.78,-474.57C159.62,-462.79 178.32,-448.88 194.52,-436.82"/>
<polygon fill="#0d1876" stroke="#0d1876" stroke-width="0.5" points="195.04,-437.96 197.12,-434.89 193.58,-436 195.04,-437.96"/>
<text xml:space="preserve" text-anchor="middle" x="199.85" y="-457.97" font-family="Arial" font-size="10.00" fill="#0d1876">2.72%</text>
<text xml:space="preserve" text-anchor="middle" x="199.85" y="-446.47" font-family="Arial" font-size="10.00" fill="#0d1876">1×</text>
</g>
<!-- 515 -->
<g id="node7" class="node">
<title>515</title>
<g id="a_node7"><a xlink:title="/Users/mps/projects/AI&#45;PROJECTS/mlx&#45;harmony/src/mlx_harmony/load_optimized.py">
<polygon fill="#0d1876" stroke="#0d1876" points="319.69,-338.98 146.91,-338.98 146.91,-284.98 319.69,-284.98 319.69,-338.98"/>
<text xml:space="preserve" text-anchor="middle" x="233.3" y="-326.98" font-family="Arial" font-size="10.00" fill="#ffffff">load_optimized:125:load_optimized</text>
<text xml:space="preserve" text-anchor="middle" x="233.3" y="-315.48" font-family="Arial" font-size="10.00" fill="#ffffff">2.71%</text>
<text xml:space="preserve" text-anchor="middle" x="233.3" y="-303.98" font-family="Arial" font-size="10.00" fill="#ffffff">(0.00%)</text>
<text xml:space="preserve" text-anchor="middle" x="233.3" y="-292.48" font-family="Arial" font-size="10.00" fill="#ffffff">1×</text>
</a>
</g>
</g>
<!-- 526&#45;&gt;515 -->
<g id="edge6" class="edge">
<title>526&#45;&gt;515</title>
<path fill="none" stroke="#0d1876" stroke-width="0.5" d="M233.3,-379.57C233.3,-368.38 233.3,-355.27 233.3,-343.65"/>
<polygon fill="#0d1876" stroke="#0d1876" stroke-width="0.5" points="234.52,-343.7 233.3,-340.2 232.07,-343.7 234.52,-343.7"/>
<text xml:space="preserve" text-anchor="middle" x="247.48" y="-362.98" font-family="Arial" font-size="10.00" fill="#0d1876">2.71%</text>
<text xml:space="preserve" text-anchor="middle" x="247.48" y="-351.48" font-family="Arial" font-size="10.00" fill="#0d1876">1×</text>
</g>
<!-- 256 -->
<g id="node4" class="node">
<title>256</title>
<g id="a_node4"><a xlink:title="/Users/mps/projects/AI&#45;PROJECTS/mlx&#45;harmony/src/mlx_harmony/load_optimized.py">
<polygon fill="#0d1776" stroke="#0d1776" points="335.24,-243.98 131.36,-243.98 131.36,-189.99 335.24,-189.99 335.24,-243.98"/>
<text xml:space="preserve" text-anchor="middle" x="233.3" y="-231.98" font-family="Arial" font-size="10.00" fill="#ffffff">load_optimized:95:prewarm_model_cache</text>
<text xml:space="preserve" text-anchor="middle" x="233.3" y="-220.49" font-family="Arial" font-size="10.00" fill="#ffffff">2.49%</text>
<text xml:space="preserve" text-anchor="middle" x="233.3" y="-208.99" font-family="Arial" font-size="10.00" fill="#ffffff">(0.00%)</text>
<text xml:space="preserve" text-anchor="middle" x="233.3" y="-197.49" font-family="Arial" font-size="10.00" fill="#ffffff">1×</text>
</a>
</g>
</g>
<!-- 326 -->
<g id="node5" class="node">
<title>326</title>
<g id="a_node5"><a xlink:title="/Users/mps/projects/AI&#45;PROJECTS/mlx&#45;harmony/src/mlx_harmony/load_optimized.py">
<polygon fill="#0d1776" stroke="#0d1776" points="346.63,-148.99 119.97,-148.99 119.97,-94.99 346.63,-94.99 346.63,-148.99"/>
<text xml:space="preserve" text-anchor="middle" x="233.3" y="-136.99" font-family="Arial" font-size="10.00" fill="#ffffff">load_optimized:20:_prewarm_filesystem_cache</text>
<text xml:space="preserve" text-anchor="middle" x="233.3" y="-125.49" font-family="Arial" font-size="10.00" fill="#ffffff">2.49%</text>
<text xml:space="preserve" text-anchor="middle" x="233.3" y="-113.99" font-family="Arial" font-size="10.00" fill="#ffffff">(0.00%)</text>
<text xml:space="preserve" text-anchor="middle" x="233.3" y="-102.49" font-family="Arial" font-size="10.00" fill="#ffffff">5×</text>
</a>
</g>
</g>
<!-- 256&#45;&gt;326 -->
<g id="edge3" class="edge">
<title>256&#45;&gt;326</title>
<path fill="none" stroke="#0d1776" stroke-width="0.5" d="M233.3,-189.59C233.3,-178.4 233.3,-165.28 233.3,-153.66"/>
<polygon fill="#0d1776" stroke="#0d1776" stroke-width="0.5" points="234.52,-153.71 233.3,-150.21 232.07,-153.71 234.52,-153.71"/>
<text xml:space="preserve" text-anchor="middle" x="247.48" y="-172.99" font-family="Arial" font-size="10.00" fill="#0d1776">2.49%</text>
<text xml:space="preserve" text-anchor="middle" x="247.48" y="-161.49" font-family="Arial" font-size="10.00" fill="#0d1776">5×</text>
</g>
<!-- 331 -->
<g id="node6" class="node">
<title>331</title>
<g id="a_node6"><a xlink:title="~">
<polygon fill="#0d1776" stroke="#0d1776" points="354.96,-54 111.64,-54 111.64,0 354.96,0 354.96,-54"/>
<text xml:space="preserve" text-anchor="middle" x="233.3" y="-42" font-family="Arial" font-size="10.00" fill="#ffffff">~:0:&lt;method &#39;read&#39; of &#39;_io.BufferedReader&#39; objects&gt;</text>
<text xml:space="preserve" text-anchor="middle" x="233.3" y="-30.5" font-family="Arial" font-size="10.00" fill="#ffffff">2.49%</text>
<text xml:space="preserve" text-anchor="middle" x="233.3" y="-19" font-family="Arial" font-size="10.00" fill="#ffffff">(2.49%)</text>
<text xml:space="preserve" text-anchor="middle" x="233.3" y="-7.5" font-family="Arial" font-size="10.00" fill="#ffffff">1413×</text>
</a>
</g>
</g>
<!-- 326&#45;&gt;331 -->
<g id="edge4" class="edge">
<title>326&#45;&gt;331</title>
<path fill="none" stroke="#0d1776" stroke-width="0.5" d="M233.3,-94.59C233.3,-83.4 233.3,-70.29 233.3,-58.67"/>
<polygon fill="#0d1776" stroke="#0d1776" stroke-width="0.5" points="234.52,-58.72 233.3,-55.22 232.07,-58.72 234.52,-58.72"/>
<text xml:space="preserve" text-anchor="middle" x="247.48" y="-77.99" font-family="Arial" font-size="10.00" fill="#0d1776">2.49%</text>
<text xml:space="preserve" text-anchor="middle" x="247.48" y="-66.5" font-family="Arial" font-size="10.00" fill="#0d1776">1410×</text>
</g>
<!-- 515&#45;&gt;256 -->
<g id="edge5" class="edge">
<title>515&#45;&gt;256</title>
<path fill="none" stroke="#0d1776" stroke-width="0.5" d="M233.3,-284.58C233.3,-273.39 233.3,-260.28 233.3,-248.66"/>
<polygon fill="#0d1776" stroke="#0d1776" stroke-width="0.5" points="234.52,-248.71 233.3,-245.21 232.07,-248.71 234.52,-248.71"/>
<text xml:space="preserve" text-anchor="middle" x="247.48" y="-267.98" font-family="Arial" font-size="10.00" fill="#0d1776">2.49%</text>
<text xml:space="preserve" text-anchor="middle" x="247.48" y="-256.48" font-family="Arial" font-size="10.00" fill="#0d1776">1×</text>
</g>
</g>
</svg>
