<?xml version="1.0" encoding="UTF-8" standalone="no"?>
<!DOCTYPE svg PUBLIC "-//W3C//DTD SVG 1.1//EN"
 "http://www.w3.org/Graphics/SVG/1.1/DTD/svg11.dtd">
<!-- Generated by graphviz version 14.0.1~dev.20251003.1243 (20251003.1243)
 -->
<!-- Title: MoshiVoiceArch Pages: 1 -->
<svg width="766pt" height="128pt"
 viewBox="0.00 0.00 766.00 128.00" xmlns="http://www.w3.org/2000/svg" xmlns:xlink="http://www.w3.org/1999/xlink">
<g id="graph0" class="graph" transform="scale(1 1) rotate(0) translate(4 123.76)">
<title>MoshiVoiceArch</title>
<polygon fill="white" stroke="none" points="-4,4 -4,-123.76 762.1,-123.76 762.1,4 -4,4"/>
<!-- cli -->
<g id="node1" class="node">
<title>cli</title>
<polygon fill="none" stroke="black" points="74.7,-65.76 0,-65.76 0,-29.76 74.7,-29.76 74.7,-65.76"/>
<text xml:space="preserve" text-anchor="middle" x="37.35" y="-50.56" font-family="Times,serif" font-size="14.00">cli/chat.py</text>
<text xml:space="preserve" text-anchor="middle" x="37.35" y="-36.56" font-family="Times,serif" font-size="14.00">&#45;&#45;moshi</text>
</g>
<!-- config -->
<g id="node2" class="node">
<title>config</title>
<polygon fill="none" stroke="black" points="208.37,-119.76 118.08,-119.76 118.08,-83.76 208.37,-83.76 208.37,-119.76"/>
<text xml:space="preserve" text-anchor="middle" x="163.22" y="-104.56" font-family="Times,serif" font-size="14.00">Moshi config</text>
<text xml:space="preserve" text-anchor="middle" x="163.22" y="-90.56" font-family="Times,serif" font-size="14.00">(moshi.json)</text>
</g>
<!-- cli&#45;&gt;config -->
<g id="edge1" class="edge">
<title>cli&#45;&gt;config</title>
<path fill="none" stroke="black" d="M75.18,-63.82C85.99,-68.53 98.03,-73.78 109.62,-78.83"/>
<polygon fill="black" stroke="black" points="108.14,-82.01 118.71,-82.79 110.94,-75.59 108.14,-82.01"/>
</g>
<!-- stt -->
<g id="node3" class="node">
<title>stt</title>
<polygon fill="none" stroke="black" points="215.75,-65.76 110.7,-65.76 110.7,-29.76 215.75,-29.76 215.75,-65.76"/>
<text xml:space="preserve" text-anchor="middle" x="163.22" y="-50.56" font-family="Times,serif" font-size="14.00">MoshiSTT</text>
<text xml:space="preserve" text-anchor="middle" x="163.22" y="-36.56" font-family="Times,serif" font-size="14.00">voice_moshi.py</text>
</g>
<!-- cli&#45;&gt;stt -->
<g id="edge2" class="edge">
<title>cli&#45;&gt;stt</title>
<path fill="none" stroke="black" d="M75.18,-47.76C82.83,-47.76 91.09,-47.76 99.38,-47.76"/>
<polygon fill="black" stroke="black" points="99.12,-51.26 109.12,-47.76 99.12,-44.26 99.12,-51.26"/>
</g>
<!-- tts -->
<g id="node4" class="node">
<title>tts</title>
<polygon fill="none" stroke="black" points="627.57,-65.76 522.53,-65.76 522.53,-29.76 627.57,-29.76 627.57,-65.76"/>
<text xml:space="preserve" text-anchor="middle" x="575.05" y="-50.56" font-family="Times,serif" font-size="14.00">MoshiTTS</text>
<text xml:space="preserve" text-anchor="middle" x="575.05" y="-36.56" font-family="Times,serif" font-size="14.00">voice_moshi.py</text>
</g>
<!-- cli&#45;&gt;tts -->
<g id="edge3" class="edge">
<title>cli&#45;&gt;tts</title>
<path fill="none" stroke="black" d="M75.18,-31.13C86.36,-26.88 98.83,-22.91 110.7,-20.76 275.08,8.91 321.36,4.14 486.53,-20.76 494.95,-22.03 503.67,-23.95 512.21,-26.19"/>
<polygon fill="black" stroke="black" points="511.25,-29.56 521.82,-28.89 513.14,-22.82 511.25,-29.56"/>
</g>
<!-- gen -->
<g id="node5" class="node">
<title>gen</title>
<polygon fill="none" stroke="black" points="359.88,-65.76 251.75,-65.76 251.75,-29.76 359.88,-29.76 359.88,-65.76"/>
<text xml:space="preserve" text-anchor="middle" x="305.81" y="-50.56" font-family="Times,serif" font-size="14.00">LLM generation</text>
<text xml:space="preserve" text-anchor="middle" x="305.81" y="-36.56" font-family="Times,serif" font-size="14.00">Token stream</text>
</g>
<!-- stt&#45;&gt;gen -->
<g id="edge4" class="edge">
<title>stt&#45;&gt;gen</title>
<path fill="none" stroke="black" d="M216.17,-47.76C224.04,-47.76 232.24,-47.76 240.33,-47.76"/>
<polygon fill="black" stroke="black" points="240.15,-51.26 250.15,-47.76 240.15,-44.26 240.15,-51.26"/>
</g>
<!-- io -->
<g id="node7" class="node">
<title>io</title>
<polygon fill="none" stroke="black" points="758.1,-88.76 663.57,-88.76 663.57,-52.76 758.1,-52.76 758.1,-88.76"/>
<text xml:space="preserve" text-anchor="middle" x="710.84" y="-73.56" font-family="Times,serif" font-size="14.00">IO</text>
<text xml:space="preserve" text-anchor="middle" x="710.84" y="-59.56" font-family="Times,serif" font-size="14.00">Mic / Speaker</text>
</g>
<!-- stt&#45;&gt;io -->
<g id="edge8" class="edge">
<title>stt&#45;&gt;io</title>
<path fill="none" stroke="black" d="M215,-66.23C226.9,-69.77 239.64,-72.94 251.75,-74.76 394.37,-96.26 564.82,-85.29 652.09,-77.07"/>
<polygon fill="black" stroke="black" points="652.21,-80.57 661.83,-76.13 651.54,-73.6 652.21,-80.57"/>
</g>
<!-- tts&#45;&gt;io -->
<g id="edge7" class="edge">
<title>tts&#45;&gt;io</title>
<path fill="none" stroke="black" d="M627.78,-56.65C635.77,-58.03 644.08,-59.46 652.19,-60.85"/>
<polygon fill="black" stroke="black" points="651.55,-64.29 662,-62.54 652.74,-57.39 651.55,-64.29"/>
</g>
<!-- render -->
<g id="node6" class="node">
<title>render</title>
<polygon fill="none" stroke="black" points="486.53,-65.76 395.88,-65.76 395.88,-29.76 486.53,-29.76 486.53,-65.76"/>
<text xml:space="preserve" text-anchor="middle" x="441.2" y="-50.56" font-family="Times,serif" font-size="14.00">Renderer</text>
<text xml:space="preserve" text-anchor="middle" x="441.2" y="-36.56" font-family="Times,serif" font-size="14.00">(Rich / plain)</text>
</g>
<!-- gen&#45;&gt;render -->
<g id="edge5" class="edge">
<title>gen&#45;&gt;render</title>
<path fill="none" stroke="black" d="M360.3,-47.76C368.19,-47.76 376.33,-47.76 384.27,-47.76"/>
<polygon fill="black" stroke="black" points="384.18,-51.26 394.18,-47.76 384.18,-44.26 384.18,-51.26"/>
</g>
<!-- render&#45;&gt;tts -->
<g id="edge6" class="edge">
<title>render&#45;&gt;tts</title>
<path fill="none" stroke="black" d="M486.84,-47.76C494.56,-47.76 502.71,-47.76 510.81,-47.76"/>
<polygon fill="black" stroke="black" points="510.66,-51.26 520.66,-47.76 510.66,-44.26 510.66,-51.26"/>
</g>
</g>
</svg>
