<?xml version="1.0" encoding="UTF-8" standalone="no"?>
<!DOCTYPE svg PUBLIC "-//W3C//DTD SVG 1.1//EN"
 "http://www.w3.org/Graphics/SVG/1.1/DTD/svg11.dtd">
<!-- Generated by graphviz version 14.0.1~dev.20251003.1243 (20251003.1243)
 -->
<!-- Pages: 1 -->
<svg width="607pt" height="1202pt"
 viewBox="0.00 0.00 607.00 1202.00" xmlns="http://www.w3.org/2000/svg" xmlns:xlink="http://www.w3.org/1999/xlink">
<g id="graph0" class="graph" transform="scale(1 1) rotate(0) translate(4 1197.93)">
<g id="a_graph0"><a xlink:title=" ">
<polygon fill="white" stroke="none" points="-4,4 -4,-1197.93 603.38,-1197.93 603.38,4 -4,4"/>
</a>
</g>
<!-- 121 -->
<g id="node1" class="node">
<title>121</title>
<g id="a_node1"><a xlink:title="/Users/mps/projects/AI&#45;PROJECTS/mlx&#45;harmony/src/mlx_harmony/generator.py">
<polygon fill="#78ca07" stroke="#78ca07" points="334.22,-718.96 213.69,-718.96 213.69,-664.96 334.22,-664.96 334.22,-718.96"/>
<text xml:space="preserve" text-anchor="middle" x="273.96" y="-706.96" font-family="Arial" font-size="10.00" fill="#ffffff">generator:182:generate</text>
<text xml:space="preserve" text-anchor="middle" x="273.96" y="-695.46" font-family="Arial" font-size="10.00" fill="#ffffff">64.43%</text>
<text xml:space="preserve" text-anchor="middle" x="273.96" y="-683.96" font-family="Arial" font-size="10.00" fill="#ffffff">(0.02%)</text>
<text xml:space="preserve" text-anchor="middle" x="273.96" y="-672.46" font-family="Arial" font-size="10.00" fill="#ffffff">9291×</text>
</a>
</g>
</g>
<!-- 863 -->
<g id="node2" class="node">
<title>863</title>
<g id="a_node2"><a xlink:title="/Users/mps/projects/AI&#45;PROJECTS/mlx&#45;harmony/src/mlx_harmony/generate_standalone.py">
<polygon fill="#78ca07" stroke="#78ca07" points="377.86,-623.96 170.05,-623.96 170.05,-569.96 377.86,-569.96 377.86,-623.96"/>
<text xml:space="preserve" text-anchor="middle" x="273.96" y="-611.96" font-family="Arial" font-size="10.00" fill="#ffffff">generate_standalone:199:stream_generate</text>
<text xml:space="preserve" text-anchor="middle" x="273.96" y="-600.46" font-family="Arial" font-size="10.00" fill="#ffffff">64.41%</text>
<text xml:space="preserve" text-anchor="middle" x="273.96" y="-588.96" font-family="Arial" font-size="10.00" fill="#ffffff">(51.32%)</text>
<text xml:space="preserve" text-anchor="middle" x="273.96" y="-577.46" font-family="Arial" font-size="10.00" fill="#ffffff">9311×</text>
</a>
</g>
</g>
<!-- 121&#45;&gt;863 -->
<g id="edge1" class="edge">
<title>121&#45;&gt;863</title>
<path fill="none" stroke="#78ca07" stroke-width="2.58" d="M273.96,-664.56C273.96,-655.72 273.96,-645.69 273.96,-636.14"/>
<polygon fill="#78ca07" stroke="#78ca07" stroke-width="2.58" points="276.76,-636.33 273.96,-628.33 271.16,-636.33 276.76,-636.33"/>
<text xml:space="preserve" text-anchor="middle" x="290.92" y="-647.96" font-family="Arial" font-size="10.00" fill="#78ca07">64.41%</text>
<text xml:space="preserve" text-anchor="middle" x="290.92" y="-636.46" font-family="Arial" font-size="10.00" fill="#78ca07">9311×</text>
</g>
<!-- 159 -->
<g id="node8" class="node">
<title>159</title>
<g id="a_node8"><a xlink:title="/Users/mps/projects/AI&#45;PROJECTS/mlx&#45;harmony/src/mlx_harmony/generate_standalone.py">
<polygon fill="#0d267a" stroke="#0d267a" points="203.92,-528.97 0,-528.97 0,-474.97 203.92,-474.97 203.92,-528.97"/>
<text xml:space="preserve" text-anchor="middle" x="101.96" y="-516.97" font-family="Arial" font-size="10.00" fill="#ffffff">generate_standalone:79:_prefill_kv_cache</text>
<text xml:space="preserve" text-anchor="middle" x="101.96" y="-505.47" font-family="Arial" font-size="10.00" fill="#ffffff">5.85%</text>
<text xml:space="preserve" text-anchor="middle" x="101.96" y="-493.97" font-family="Arial" font-size="10.00" fill="#ffffff">(5.84%)</text>
<text xml:space="preserve" text-anchor="middle" x="101.96" y="-482.47" font-family="Arial" font-size="10.00" fill="#ffffff">20×</text>
</a>
</g>
</g>
<!-- 863&#45;&gt;159 -->
<g id="edge8" class="edge">
<title>863&#45;&gt;159</title>
<path fill="none" stroke="#0d267a" stroke-width="0.5" d="M225.13,-569.56C203.07,-557.64 176.97,-543.52 154.48,-531.37"/>
<polygon fill="#0d267a" stroke="#0d267a" stroke-width="0.5" points="155.23,-530.38 151.57,-529.79 154.07,-532.54 155.23,-530.38"/>
<text xml:space="preserve" text-anchor="middle" x="222.6" y="-552.96" font-family="Arial" font-size="10.00" fill="#0d267a">5.85%</text>
<text xml:space="preserve" text-anchor="middle" x="222.6" y="-541.47" font-family="Arial" font-size="10.00" fill="#0d267a">20×</text>
</g>
<!-- 859 -->
<g id="node14" class="node">
<title>859</title>
<g id="a_node14"><a xlink:title="/Users/mps/projects/AI&#45;PROJECTS/mlx&#45;harmony/src/mlx_harmony/sampling.py">
<polygon fill="#0d1575" stroke="#0d1575" points="335.04,-528.97 212.87,-528.97 212.87,-474.97 335.04,-474.97 335.04,-528.97"/>
<text xml:space="preserve" text-anchor="middle" x="273.96" y="-516.97" font-family="Arial" font-size="10.00" fill="#ffffff">sampling:288:processor</text>
<text xml:space="preserve" text-anchor="middle" x="273.96" y="-505.47" font-family="Arial" font-size="10.00" fill="#ffffff">1.86%</text>
<text xml:space="preserve" text-anchor="middle" x="273.96" y="-493.97" font-family="Arial" font-size="10.00" fill="#ffffff">(1.86%)</text>
<text xml:space="preserve" text-anchor="middle" x="273.96" y="-482.47" font-family="Arial" font-size="10.00" fill="#ffffff">9291×</text>
</a>
</g>
</g>
<!-- 863&#45;&gt;859 -->
<g id="edge9" class="edge">
<title>863&#45;&gt;859</title>
<path fill="none" stroke="#0d1575" stroke-width="0.5" d="M273.96,-569.56C273.96,-558.37 273.96,-545.26 273.96,-533.64"/>
<polygon fill="#0d1575" stroke="#0d1575" stroke-width="0.5" points="275.18,-533.69 273.96,-530.19 272.73,-533.69 275.18,-533.69"/>
<text xml:space="preserve" text-anchor="middle" x="288.13" y="-552.96" font-family="Arial" font-size="10.00" fill="#0d1575">1.86%</text>
<text xml:space="preserve" text-anchor="middle" x="288.13" y="-541.47" font-family="Arial" font-size="10.00" fill="#0d1575">9291×</text>
</g>
<!-- 1897 -->
<g id="node15" class="node">
<title>1897</title>
<g id="a_node15"><a xlink:title="/Users/mps/projects/AI&#45;PROJECTS/mlx&#45;harmony/src/mlx_harmony/models/gpt_oss.py">
<polygon fill="#0d247a" stroke="#0d247a" points="454.22,-528.97 343.7,-528.97 343.7,-474.97 454.22,-474.97 454.22,-528.97"/>
<text xml:space="preserve" text-anchor="middle" x="398.96" y="-516.97" font-family="Arial" font-size="10.00" fill="#ffffff">gpt_oss:242:__call__</text>
<text xml:space="preserve" text-anchor="middle" x="398.96" y="-505.47" font-family="Arial" font-size="10.00" fill="#ffffff">5.39%</text>
<text xml:space="preserve" text-anchor="middle" x="398.96" y="-493.97" font-family="Arial" font-size="10.00" fill="#ffffff">(0.01%)</text>
<text xml:space="preserve" text-anchor="middle" x="398.96" y="-482.47" font-family="Arial" font-size="10.00" fill="#ffffff">9311×</text>
</a>
</g>
</g>
<!-- 863&#45;&gt;1897 -->
<g id="edge10" class="edge">
<title>863&#45;&gt;1897</title>
<path fill="none" stroke="#0d247a" stroke-width="0.5" d="M309.44,-569.56C325.28,-557.78 343.98,-543.87 360.18,-531.82"/>
<polygon fill="#0d247a" stroke="#0d247a" stroke-width="0.5" points="360.7,-532.96 362.78,-529.89 359.24,-530.99 360.7,-532.96"/>
<text xml:space="preserve" text-anchor="middle" x="365.51" y="-552.96" font-family="Arial" font-size="10.00" fill="#0d247a">5.38%</text>
<text xml:space="preserve" text-anchor="middle" x="365.51" y="-541.47" font-family="Arial" font-size="10.00" fill="#0d247a">9291×</text>
</g>
<!-- 122 -->
<g id="node3" class="node">
<title>122</title>
<g id="a_node3"><a xlink:title="/Users/mps/projects/AI&#45;PROJECTS/mlx&#45;harmony/src/mlx_harmony/chat.py">
<polygon fill="#ff0000" stroke="#ff0000" points="392.59,-1193.93 319.33,-1193.93 319.33,-1139.93 392.59,-1139.93 392.59,-1193.93"/>
<text xml:space="preserve" text-anchor="middle" x="355.96" y="-1181.93" font-family="Arial" font-size="10.00" fill="#ffffff">chat:75:main</text>
<text xml:space="preserve" text-anchor="middle" x="355.96" y="-1170.43" font-family="Arial" font-size="10.00" fill="#ffffff">100.00%</text>
<text xml:space="preserve" text-anchor="middle" x="355.96" y="-1158.93" font-family="Arial" font-size="10.00" fill="#ffffff">(0.00%)</text>
<text xml:space="preserve" text-anchor="middle" x="355.96" y="-1147.43" font-family="Arial" font-size="10.00" fill="#ffffff">1×</text>
</a>
</g>
</g>
<!-- 125 -->
<g id="node4" class="node">
<title>125</title>
<g id="a_node4"><a xlink:title="/Users/mps/projects/AI&#45;PROJECTS/mlx&#45;harmony/src/mlx_harmony/chat_turn.py">
<polygon fill="#7ccb07" stroke="#7ccb07" points="344,-1098.93 207.92,-1098.93 207.92,-1044.94 344,-1044.94 344,-1098.93"/>
<text xml:space="preserve" text-anchor="middle" x="275.96" y="-1086.93" font-family="Arial" font-size="10.00" fill="#ffffff">chat_turn:17:run_chat_turn</text>
<text xml:space="preserve" text-anchor="middle" x="275.96" y="-1075.43" font-family="Arial" font-size="10.00" fill="#ffffff">64.88%</text>
<text xml:space="preserve" text-anchor="middle" x="275.96" y="-1063.93" font-family="Arial" font-size="10.00" fill="#ffffff">(0.00%)</text>
<text xml:space="preserve" text-anchor="middle" x="275.96" y="-1052.43" font-family="Arial" font-size="10.00" fill="#ffffff">20×</text>
</a>
</g>
</g>
<!-- 122&#45;&gt;125 -->
<g id="edge2" class="edge">
<title>122&#45;&gt;125</title>
<path fill="none" stroke="#7ccb07" stroke-width="2.6" d="M333.25,-1139.53C324.89,-1129.81 315.28,-1118.64 306.35,-1108.26"/>
<polygon fill="#7ccb07" stroke="#7ccb07" stroke-width="2.6" points="308.72,-1106.67 301.29,-1102.38 304.42,-1110.37 308.72,-1106.67"/>
<text xml:space="preserve" text-anchor="middle" x="342.43" y="-1122.93" font-family="Arial" font-size="10.00" fill="#7ccb07">64.88%</text>
<text xml:space="preserve" text-anchor="middle" x="342.43" y="-1111.43" font-family="Arial" font-size="10.00" fill="#7ccb07">20×</text>
</g>
<!-- 700 -->
<g id="node5" class="node">
<title>700</title>
<g id="a_node5"><a xlink:title="/Users/mps/projects/AI&#45;PROJECTS/mlx&#45;harmony/src/mlx_harmony/chat_bootstrap.py">
<polygon fill="#0ba164" stroke="#0ba164" points="518.45,-1098.93 353.46,-1098.93 353.46,-1044.94 518.45,-1044.94 518.45,-1098.93"/>
<text xml:space="preserve" text-anchor="middle" x="435.96" y="-1086.93" font-family="Arial" font-size="10.00" fill="#ffffff">chat_bootstrap:47:bootstrap_chat</text>
<text xml:space="preserve" text-anchor="middle" x="435.96" y="-1075.43" font-family="Arial" font-size="10.00" fill="#ffffff">35.11%</text>
<text xml:space="preserve" text-anchor="middle" x="435.96" y="-1063.93" font-family="Arial" font-size="10.00" fill="#ffffff">(0.00%)</text>
<text xml:space="preserve" text-anchor="middle" x="435.96" y="-1052.43" font-family="Arial" font-size="10.00" fill="#ffffff">1×</text>
</a>
</g>
</g>
<!-- 122&#45;&gt;700 -->
<g id="edge3" class="edge">
<title>122&#45;&gt;700</title>
<path fill="none" stroke="#0ba164" stroke-width="1.4" d="M378.67,-1139.53C387.79,-1128.93 398.39,-1116.6 407.98,-1105.45"/>
<polygon fill="#0ba164" stroke="#0ba164" stroke-width="1.4" points="409.53,-1106.83 411.81,-1101.01 406.39,-1104.13 409.53,-1106.83"/>
<text xml:space="preserve" text-anchor="middle" x="422.06" y="-1122.93" font-family="Arial" font-size="10.00" fill="#0ba164">35.11%</text>
<text xml:space="preserve" text-anchor="middle" x="422.06" y="-1111.43" font-family="Arial" font-size="10.00" fill="#0ba164">1×</text>
</g>
<!-- 242 -->
<g id="node6" class="node">
<title>242</title>
<g id="a_node6"><a xlink:title="/Users/mps/projects/AI&#45;PROJECTS/mlx&#45;harmony/src/mlx_harmony/chat_attempt.py">
<polygon fill="#7acb07" stroke="#7acb07" points="372.3,-1003.94 175.62,-1003.94 175.62,-949.94 372.3,-949.94 372.3,-1003.94"/>
<text xml:space="preserve" text-anchor="middle" x="273.96" y="-991.94" font-family="Arial" font-size="10.00" fill="#ffffff">chat_attempt:15:run_generation_attempt</text>
<text xml:space="preserve" text-anchor="middle" x="273.96" y="-980.44" font-family="Arial" font-size="10.00" fill="#ffffff">64.66%</text>
<text xml:space="preserve" text-anchor="middle" x="273.96" y="-968.94" font-family="Arial" font-size="10.00" fill="#ffffff">(0.00%)</text>
<text xml:space="preserve" text-anchor="middle" x="273.96" y="-957.44" font-family="Arial" font-size="10.00" fill="#ffffff">20×</text>
</a>
</g>
</g>
<!-- 125&#45;&gt;242 -->
<g id="edge4" class="edge">
<title>125&#45;&gt;242</title>
<path fill="none" stroke="#7acb07" stroke-width="2.59" d="M275.39,-1044.53C275.2,-1035.7 274.98,-1025.67 274.78,-1016.12"/>
<polygon fill="#7acb07" stroke="#7acb07" stroke-width="2.59" points="277.58,-1016.26 274.61,-1008.32 271.98,-1016.38 277.58,-1016.26"/>
<text xml:space="preserve" text-anchor="middle" x="292.15" y="-1027.94" font-family="Arial" font-size="10.00" fill="#7acb07">64.66%</text>
<text xml:space="preserve" text-anchor="middle" x="292.15" y="-1016.44" font-family="Arial" font-size="10.00" fill="#7acb07">20×</text>
</g>
<!-- 1116 -->
<g id="node13" class="node">
<title>1116</title>
<g id="a_node13"><a xlink:title="/Users/mps/projects/AI&#45;PROJECTS/mlx&#45;harmony/src/mlx_harmony/generator.py">
<polygon fill="#0ba164" stroke="#0ba164" points="492.22,-1003.94 381.7,-1003.94 381.7,-949.94 492.22,-949.94 492.22,-1003.94"/>
<text xml:space="preserve" text-anchor="middle" x="436.96" y="-991.94" font-family="Arial" font-size="10.00" fill="#ffffff">generator:30:__init__</text>
<text xml:space="preserve" text-anchor="middle" x="436.96" y="-980.44" font-family="Arial" font-size="10.00" fill="#ffffff">35.11%</text>
<text xml:space="preserve" text-anchor="middle" x="436.96" y="-968.94" font-family="Arial" font-size="10.00" fill="#ffffff">(0.00%)</text>
<text xml:space="preserve" text-anchor="middle" x="436.96" y="-957.44" font-family="Arial" font-size="10.00" fill="#ffffff">1×</text>
</a>
</g>
</g>
<!-- 700&#45;&gt;1116 -->
<g id="edge7" class="edge">
<title>700&#45;&gt;1116</title>
<path fill="none" stroke="#0ba164" stroke-width="1.4" d="M436.24,-1044.53C436.35,-1034.52 436.47,-1022.97 436.59,-1012.33"/>
<polygon fill="#0ba164" stroke="#0ba164" stroke-width="1.4" points="438.65,-1012.45 436.65,-1006.52 434.52,-1012.4 438.65,-1012.45"/>
<text xml:space="preserve" text-anchor="middle" x="453.16" y="-1027.94" font-family="Arial" font-size="10.00" fill="#0ba164">35.11%</text>
<text xml:space="preserve" text-anchor="middle" x="453.16" y="-1016.44" font-family="Arial" font-size="10.00" fill="#0ba164">1×</text>
</g>
<!-- 1701 -->
<g id="node11" class="node">
<title>1701</title>
<g id="a_node11"><a xlink:title="/Users/mps/projects/AI&#45;PROJECTS/mlx&#45;harmony/src/mlx_harmony/chat_adapters.py">
<polygon fill="#78ca07" stroke="#78ca07" points="337.27,-908.94 210.65,-908.94 210.65,-854.95 337.27,-854.95 337.27,-908.94"/>
<text xml:space="preserve" text-anchor="middle" x="273.96" y="-896.94" font-family="Arial" font-size="10.00" fill="#ffffff">chat_adapters:52:stream</text>
<text xml:space="preserve" text-anchor="middle" x="273.96" y="-885.44" font-family="Arial" font-size="10.00" fill="#ffffff">64.45%</text>
<text xml:space="preserve" text-anchor="middle" x="273.96" y="-873.95" font-family="Arial" font-size="10.00" fill="#ffffff">(0.00%)</text>
<text xml:space="preserve" text-anchor="middle" x="273.96" y="-862.45" font-family="Arial" font-size="10.00" fill="#ffffff">20×</text>
</a>
</g>
</g>
<!-- 242&#45;&gt;1701 -->
<g id="edge6" class="edge">
<title>242&#45;&gt;1701</title>
<path fill="none" stroke="#78ca07" stroke-width="2.58" d="M273.96,-949.54C273.96,-940.7 273.96,-930.67 273.96,-921.12"/>
<polygon fill="#78ca07" stroke="#78ca07" stroke-width="2.58" points="276.76,-921.32 273.96,-913.32 271.16,-921.32 276.76,-921.32"/>
<text xml:space="preserve" text-anchor="middle" x="290.92" y="-932.94" font-family="Arial" font-size="10.00" fill="#78ca07">64.45%</text>
<text xml:space="preserve" text-anchor="middle" x="290.92" y="-921.44" font-family="Arial" font-size="10.00" fill="#78ca07">20×</text>
</g>
<!-- 126 -->
<g id="node7" class="node">
<title>126</title>
<g id="a_node7"><a xlink:title="/Users/mps/projects/AI&#45;PROJECTS/mlx&#45;harmony/src/mlx_harmony/chat_generation.py">
<polygon fill="#78ca07" stroke="#78ca07" points="367.85,-813.95 180.06,-813.95 180.06,-759.95 367.85,-759.95 367.85,-813.95"/>
<text xml:space="preserve" text-anchor="middle" x="273.96" y="-801.95" font-family="Arial" font-size="10.00" fill="#ffffff">chat_generation:10:stream_generation</text>
<text xml:space="preserve" text-anchor="middle" x="273.96" y="-790.45" font-family="Arial" font-size="10.00" fill="#ffffff">64.45%</text>
<text xml:space="preserve" text-anchor="middle" x="273.96" y="-778.95" font-family="Arial" font-size="10.00" fill="#ffffff">(0.02%)</text>
<text xml:space="preserve" text-anchor="middle" x="273.96" y="-767.45" font-family="Arial" font-size="10.00" fill="#ffffff">20×</text>
</a>
</g>
</g>
<!-- 126&#45;&gt;121 -->
<g id="edge5" class="edge">
<title>126&#45;&gt;121</title>
<path fill="none" stroke="#78ca07" stroke-width="2.58" d="M273.96,-759.55C273.96,-750.72 273.96,-740.68 273.96,-731.13"/>
<polygon fill="#78ca07" stroke="#78ca07" stroke-width="2.58" points="276.76,-731.33 273.96,-723.33 271.16,-731.33 276.76,-731.33"/>
<text xml:space="preserve" text-anchor="middle" x="290.92" y="-742.95" font-family="Arial" font-size="10.00" fill="#78ca07">64.43%</text>
<text xml:space="preserve" text-anchor="middle" x="290.92" y="-731.45" font-family="Arial" font-size="10.00" fill="#78ca07">9291×</text>
</g>
<!-- 221 -->
<g id="node9" class="node">
<title>221</title>
<g id="a_node9"><a xlink:title="/Users/unixwzrd/miniconda3/envs/ConnectomeAI/lib/python3.12/site&#45;packages/mlx/nn/layers/quantized.py">
<polygon fill="#0d1074" stroke="#0d1074" points="471.39,-148.99 352.53,-148.99 352.53,-94.99 471.39,-94.99 471.39,-148.99"/>
<text xml:space="preserve" text-anchor="middle" x="411.96" y="-136.99" font-family="Arial" font-size="10.00" fill="#ffffff">quantized:242:__call__</text>
<text xml:space="preserve" text-anchor="middle" x="411.96" y="-125.49" font-family="Arial" font-size="10.00" fill="#ffffff">0.70%</text>
<text xml:space="preserve" text-anchor="middle" x="411.96" y="-113.99" font-family="Arial" font-size="10.00" fill="#ffffff">(0.67%)</text>
<text xml:space="preserve" text-anchor="middle" x="411.96" y="-102.49" font-family="Arial" font-size="10.00" fill="#ffffff">1126631×</text>
</a>
</g>
</g>
<!-- 224 -->
<g id="node10" class="node">
<title>224</title>
<g id="a_node10"><a xlink:title="/Users/mps/projects/AI&#45;PROJECTS/mlx&#45;harmony/src/mlx_harmony/models/switch_layers.py">
<polygon fill="#0d1074" stroke="#0d1074" points="340.93,-54 210.98,-54 210.98,0 340.93,0 340.93,-54"/>
<text xml:space="preserve" text-anchor="middle" x="275.96" y="-42" font-family="Arial" font-size="10.00" fill="#ffffff">switch_layers:91:__call__</text>
<text xml:space="preserve" text-anchor="middle" x="275.96" y="-30.5" font-family="Arial" font-size="10.00" fill="#ffffff">0.88%</text>
<text xml:space="preserve" text-anchor="middle" x="275.96" y="-19" font-family="Arial" font-size="10.00" fill="#ffffff">(0.76%)</text>
<text xml:space="preserve" text-anchor="middle" x="275.96" y="-7.5" font-family="Arial" font-size="10.00" fill="#ffffff">670392×</text>
</a>
</g>
</g>
<!-- 1701&#45;&gt;126 -->
<g id="edge12" class="edge">
<title>1701&#45;&gt;126</title>
<path fill="none" stroke="#78ca07" stroke-width="2.58" d="M273.96,-854.55C273.96,-845.71 273.96,-835.68 273.96,-826.13"/>
<polygon fill="#78ca07" stroke="#78ca07" stroke-width="2.58" points="276.76,-826.32 273.96,-818.32 271.16,-826.32 276.76,-826.32"/>
<text xml:space="preserve" text-anchor="middle" x="290.92" y="-837.95" font-family="Arial" font-size="10.00" fill="#78ca07">64.45%</text>
<text xml:space="preserve" text-anchor="middle" x="290.92" y="-826.45" font-family="Arial" font-size="10.00" fill="#78ca07">20×</text>
</g>
<!-- 245 -->
<g id="node12" class="node">
<title>245</title>
<g id="a_node12"><a xlink:title="/Users/mps/projects/AI&#45;PROJECTS/mlx&#45;harmony/src/mlx_harmony/loader.py">
<polygon fill="#0ba165" stroke="#0ba165" points="522.7,-908.94 351.21,-908.94 351.21,-854.95 522.7,-854.95 522.7,-908.94"/>
<text xml:space="preserve" text-anchor="middle" x="436.96" y="-896.94" font-family="Arial" font-size="10.00" fill="#ffffff">loader:211:load_model_standalone</text>
<text xml:space="preserve" text-anchor="middle" x="436.96" y="-885.44" font-family="Arial" font-size="10.00" fill="#ffffff">35.00%</text>
<text xml:space="preserve" text-anchor="middle" x="436.96" y="-873.95" font-family="Arial" font-size="10.00" fill="#ffffff">(34.76%)</text>
<text xml:space="preserve" text-anchor="middle" x="436.96" y="-862.45" font-family="Arial" font-size="10.00" fill="#ffffff">1×</text>
</a>
</g>
</g>
<!-- 1116&#45;&gt;245 -->
<g id="edge11" class="edge">
<title>1116&#45;&gt;245</title>
<path fill="none" stroke="#0ba165" stroke-width="1.4" d="M436.96,-949.54C436.96,-939.53 436.96,-927.97 436.96,-917.33"/>
<polygon fill="#0ba165" stroke="#0ba165" stroke-width="1.4" points="439.02,-917.43 436.96,-911.53 434.89,-917.43 439.02,-917.43"/>
<text xml:space="preserve" text-anchor="middle" x="453.92" y="-932.94" font-family="Arial" font-size="10.00" fill="#0ba165">35.00%</text>
<text xml:space="preserve" text-anchor="middle" x="453.92" y="-921.44" font-family="Arial" font-size="10.00" fill="#0ba165">1×</text>
</g>
<!-- 1895 -->
<g id="node17" class="node">
<title>1895</title>
<g id="a_node17"><a xlink:title="/Users/mps/projects/AI&#45;PROJECTS/mlx&#45;harmony/src/mlx_harmony/models/gpt_oss.py">
<polygon fill="#0d247a" stroke="#0d247a" points="454.22,-433.97 343.7,-433.97 343.7,-379.98 454.22,-379.98 454.22,-433.97"/>
<text xml:space="preserve" text-anchor="middle" x="398.96" y="-421.97" font-family="Arial" font-size="10.00" fill="#ffffff">gpt_oss:208:__call__</text>
<text xml:space="preserve" text-anchor="middle" x="398.96" y="-410.47" font-family="Arial" font-size="10.00" fill="#ffffff">5.37%</text>
<text xml:space="preserve" text-anchor="middle" x="398.96" y="-398.97" font-family="Arial" font-size="10.00" fill="#ffffff">(0.06%)</text>
<text xml:space="preserve" text-anchor="middle" x="398.96" y="-387.48" font-family="Arial" font-size="10.00" fill="#ffffff">9311×</text>
</a>
</g>
</g>
<!-- 1897&#45;&gt;1895 -->
<g id="edge17" class="edge">
<title>1897&#45;&gt;1895</title>
<path fill="none" stroke="#0d247a" stroke-width="0.5" d="M398.96,-474.57C398.96,-463.38 398.96,-450.26 398.96,-438.65"/>
<polygon fill="#0d247a" stroke="#0d247a" stroke-width="0.5" points="400.18,-438.7 398.96,-435.2 397.73,-438.7 400.18,-438.7"/>
<text xml:space="preserve" text-anchor="middle" x="413.13" y="-457.97" font-family="Arial" font-size="10.00" fill="#0d247a">5.37%</text>
<text xml:space="preserve" text-anchor="middle" x="413.13" y="-446.47" font-family="Arial" font-size="10.00" fill="#0d247a">9311×</text>
</g>
<!-- 1891 -->
<g id="node16" class="node">
<title>1891</title>
<g id="a_node16"><a xlink:title="/Users/mps/projects/AI&#45;PROJECTS/mlx&#45;harmony/src/mlx_harmony/models/switch_layers.py">
<polygon fill="#0d1275" stroke="#0d1275" points="343.71,-148.99 208.2,-148.99 208.2,-94.99 343.71,-94.99 343.71,-148.99"/>
<text xml:space="preserve" text-anchor="middle" x="275.96" y="-136.99" font-family="Arial" font-size="10.00" fill="#ffffff">switch_layers:204:__call__</text>
<text xml:space="preserve" text-anchor="middle" x="275.96" y="-125.49" font-family="Arial" font-size="10.00" fill="#ffffff">1.38%</text>
<text xml:space="preserve" text-anchor="middle" x="275.96" y="-113.99" font-family="Arial" font-size="10.00" fill="#ffffff">(0.24%)</text>
<text xml:space="preserve" text-anchor="middle" x="275.96" y="-102.49" font-family="Arial" font-size="10.00" fill="#ffffff">223464×</text>
</a>
</g>
</g>
<!-- 1891&#45;&gt;224 -->
<g id="edge13" class="edge">
<title>1891&#45;&gt;224</title>
<path fill="none" stroke="#0d1074" stroke-width="0.5" d="M275.96,-94.59C275.96,-83.4 275.96,-70.29 275.96,-58.67"/>
<polygon fill="#0d1074" stroke="#0d1074" stroke-width="0.5" points="277.18,-58.72 275.96,-55.22 274.73,-58.72 277.18,-58.72"/>
<text xml:space="preserve" text-anchor="middle" x="295.56" y="-77.99" font-family="Arial" font-size="10.00" fill="#0d1074">0.88%</text>
<text xml:space="preserve" text-anchor="middle" x="295.56" y="-66.5" font-family="Arial" font-size="10.00" fill="#0d1074">670392×</text>
</g>
<!-- 1908 -->
<g id="node18" class="node">
<title>1908</title>
<g id="a_node18"><a xlink:title="/Users/mps/projects/AI&#45;PROJECTS/mlx&#45;harmony/src/mlx_harmony/models/gpt_oss.py">
<polygon fill="#0d2479" stroke="#0d2479" points="454.22,-338.98 343.7,-338.98 343.7,-284.98 454.22,-284.98 454.22,-338.98"/>
<text xml:space="preserve" text-anchor="middle" x="398.96" y="-326.98" font-family="Arial" font-size="10.00" fill="#ffffff">gpt_oss:178:__call__</text>
<text xml:space="preserve" text-anchor="middle" x="398.96" y="-315.48" font-family="Arial" font-size="10.00" fill="#ffffff">5.25%</text>
<text xml:space="preserve" text-anchor="middle" x="398.96" y="-303.98" font-family="Arial" font-size="10.00" fill="#ffffff">(0.21%)</text>
<text xml:space="preserve" text-anchor="middle" x="398.96" y="-292.48" font-family="Arial" font-size="10.00" fill="#ffffff">223464×</text>
</a>
</g>
</g>
<!-- 1895&#45;&gt;1908 -->
<g id="edge14" class="edge">
<title>1895&#45;&gt;1908</title>
<path fill="none" stroke="#0d2479" stroke-width="0.5" d="M398.96,-379.57C398.96,-368.38 398.96,-355.27 398.96,-343.65"/>
<polygon fill="#0d2479" stroke="#0d2479" stroke-width="0.5" points="400.18,-343.7 398.96,-340.2 397.73,-343.7 400.18,-343.7"/>
<text xml:space="preserve" text-anchor="middle" x="418.56" y="-362.98" font-family="Arial" font-size="10.00" fill="#0d2479">5.25%</text>
<text xml:space="preserve" text-anchor="middle" x="418.56" y="-351.48" font-family="Arial" font-size="10.00" fill="#0d2479">223464×</text>
</g>
<!-- 1896 -->
<g id="node19" class="node">
<title>1896</title>
<g id="a_node19"><a xlink:title="/Users/mps/projects/AI&#45;PROJECTS/mlx&#45;harmony/src/mlx_harmony/models/gpt_oss.py">
<polygon fill="#0d1575" stroke="#0d1575" points="395.22,-243.98 284.7,-243.98 284.7,-189.99 395.22,-189.99 395.22,-243.98"/>
<text xml:space="preserve" text-anchor="middle" x="339.96" y="-231.98" font-family="Arial" font-size="10.00" fill="#ffffff">gpt_oss:156:__call__</text>
<text xml:space="preserve" text-anchor="middle" x="339.96" y="-220.49" font-family="Arial" font-size="10.00" fill="#ffffff">1.99%</text>
<text xml:space="preserve" text-anchor="middle" x="339.96" y="-208.99" font-family="Arial" font-size="10.00" fill="#ffffff">(0.25%)</text>
<text xml:space="preserve" text-anchor="middle" x="339.96" y="-197.49" font-family="Arial" font-size="10.00" fill="#ffffff">223464×</text>
</a>
</g>
</g>
<!-- 1908&#45;&gt;1896 -->
<g id="edge20" class="edge">
<title>1908&#45;&gt;1896</title>
<path fill="none" stroke="#0d1575" stroke-width="0.5" d="M382.21,-284.58C374.92,-273.1 366.35,-259.58 358.84,-247.74"/>
<polygon fill="#0d1575" stroke="#0d1575" stroke-width="0.5" points="360.06,-247.39 357.15,-245.09 357.99,-248.7 360.06,-247.39"/>
<text xml:space="preserve" text-anchor="middle" x="396.08" y="-267.98" font-family="Arial" font-size="10.00" fill="#0d1575">1.99%</text>
<text xml:space="preserve" text-anchor="middle" x="396.08" y="-256.48" font-family="Arial" font-size="10.00" fill="#0d1575">223464×</text>
</g>
<!-- 1898 -->
<g id="node20" class="node">
<title>1898</title>
<g id="a_node20"><a xlink:title="/Users/mps/projects/AI&#45;PROJECTS/mlx&#45;harmony/src/mlx_harmony/models/gpt_oss.py">
<polygon fill="#0d1976" stroke="#0d1976" points="513.84,-243.98 404.07,-243.98 404.07,-189.99 513.84,-189.99 513.84,-243.98"/>
<text xml:space="preserve" text-anchor="middle" x="458.96" y="-231.98" font-family="Arial" font-size="10.00" fill="#ffffff">gpt_oss:114:__call__</text>
<text xml:space="preserve" text-anchor="middle" x="458.96" y="-220.49" font-family="Arial" font-size="10.00" fill="#ffffff">2.85%</text>
<text xml:space="preserve" text-anchor="middle" x="458.96" y="-208.99" font-family="Arial" font-size="10.00" fill="#ffffff">(0.56%)</text>
<text xml:space="preserve" text-anchor="middle" x="458.96" y="-197.49" font-family="Arial" font-size="10.00" fill="#ffffff">223464×</text>
</a>
</g>
</g>
<!-- 1908&#45;&gt;1898 -->
<g id="edge21" class="edge">
<title>1908&#45;&gt;1898</title>
<path fill="none" stroke="#0d1976" stroke-width="0.5" d="M415.99,-284.58C423.4,-273.1 432.12,-259.58 439.76,-247.74"/>
<polygon fill="#0d1976" stroke="#0d1976" stroke-width="0.5" points="440.6,-248.69 441.47,-245.09 438.54,-247.36 440.6,-248.69"/>
<text xml:space="preserve" text-anchor="middle" x="455.7" y="-267.98" font-family="Arial" font-size="10.00" fill="#0d1976">2.85%</text>
<text xml:space="preserve" text-anchor="middle" x="455.7" y="-256.48" font-family="Arial" font-size="10.00" fill="#0d1976">223464×</text>
</g>
<!-- 1896&#45;&gt;221 -->
<g id="edge15" class="edge">
<title>1896&#45;&gt;221</title>
<path fill="none" stroke="#0d0d73" stroke-width="0.5" d="M360.4,-189.59C369.29,-178.1 379.75,-164.59 388.92,-152.75"/>
<polygon fill="#0d0d73" stroke="#0d0d73" stroke-width="0.5" points="389.83,-153.57 391,-150.06 387.89,-152.07 389.83,-153.57"/>
<text xml:space="preserve" text-anchor="middle" x="404.13" y="-172.99" font-family="Arial" font-size="10.00" fill="#0d0d73">0.14%</text>
<text xml:space="preserve" text-anchor="middle" x="404.13" y="-161.49" font-family="Arial" font-size="10.00" fill="#0d0d73">223464×</text>
</g>
<!-- 1896&#45;&gt;1891 -->
<g id="edge16" class="edge">
<title>1896&#45;&gt;1891</title>
<path fill="none" stroke="#0d1275" stroke-width="0.5" d="M321.79,-189.59C313.88,-178.1 304.59,-164.59 296.44,-152.75"/>
<polygon fill="#0d1275" stroke="#0d1275" stroke-width="0.5" points="297.59,-152.27 294.6,-150.08 295.58,-153.66 297.59,-152.27"/>
<text xml:space="preserve" text-anchor="middle" x="335.18" y="-172.99" font-family="Arial" font-size="10.00" fill="#0d1275">1.38%</text>
<text xml:space="preserve" text-anchor="middle" x="335.18" y="-161.49" font-family="Arial" font-size="10.00" fill="#0d1275">223464×</text>
</g>
<!-- 1898&#45;&gt;221 -->
<g id="edge18" class="edge">
<title>1898&#45;&gt;221</title>
<path fill="none" stroke="#0d0f73" stroke-width="0.5" d="M445.61,-189.59C439.86,-178.2 433.1,-164.82 427.15,-153.05"/>
<polygon fill="#0d0f73" stroke="#0d0f73" stroke-width="0.5" points="428.35,-152.7 425.67,-150.13 426.16,-153.81 428.35,-152.7"/>
<text xml:space="preserve" text-anchor="middle" x="460.65" y="-172.99" font-family="Arial" font-size="10.00" fill="#0d0f73">0.56%</text>
<text xml:space="preserve" text-anchor="middle" x="460.65" y="-161.49" font-family="Arial" font-size="10.00" fill="#0d0f73">893856×</text>
</g>
<!-- 1909 -->
<g id="node21" class="node">
<title>1909</title>
<g id="a_node21"><a xlink:title="/Users/mps/projects/AI&#45;PROJECTS/mlx&#45;harmony/src/mlx_harmony/models/rope_utils.py">
<polygon fill="#0d1174" stroke="#0d1174" points="599.38,-148.99 480.53,-148.99 480.53,-94.99 599.38,-94.99 599.38,-148.99"/>
<text xml:space="preserve" text-anchor="middle" x="539.96" y="-136.99" font-family="Arial" font-size="10.00" fill="#ffffff">rope_utils:164:__call__</text>
<text xml:space="preserve" text-anchor="middle" x="539.96" y="-125.49" font-family="Arial" font-size="10.00" fill="#ffffff">1.10%</text>
<text xml:space="preserve" text-anchor="middle" x="539.96" y="-113.99" font-family="Arial" font-size="10.00" fill="#ffffff">(1.06%)</text>
<text xml:space="preserve" text-anchor="middle" x="539.96" y="-102.49" font-family="Arial" font-size="10.00" fill="#ffffff">446928×</text>
</a>
</g>
</g>
<!-- 1898&#45;&gt;1909 -->
<g id="edge19" class="edge">
<title>1898&#45;&gt;1909</title>
<path fill="none" stroke="#0d1174" stroke-width="0.5" d="M481.95,-189.59C492.04,-178 503.93,-164.36 514.3,-152.45"/>
<polygon fill="#0d1174" stroke="#0d1174" stroke-width="0.5" points="515.03,-153.47 516.41,-150.03 513.19,-151.86 515.03,-153.47"/>
<text xml:space="preserve" text-anchor="middle" x="528.7" y="-172.99" font-family="Arial" font-size="10.00" fill="#0d1174">1.10%</text>
<text xml:space="preserve" text-anchor="middle" x="528.7" y="-161.49" font-family="Arial" font-size="10.00" fill="#0d1174">446928×</text>
</g>
</g>
</svg>
