<?xml version="1.0" encoding="UTF-8" standalone="no"?>
<!DOCTYPE svg PUBLIC "-//W3C//DTD SVG 1.1//EN"
 "http://www.w3.org/Graphics/SVG/1.1/DTD/svg11.dtd">
<!-- Generated by graphviz version 14.0.1~dev.20251003.1243 (20251003.1243)
 -->
<!-- Pages: 1 -->
<svg width="624pt" height="1202pt"
 viewBox="0.00 0.00 624.00 1202.00" xmlns="http://www.w3.org/2000/svg" xmlns:xlink="http://www.w3.org/1999/xlink">
<g id="graph0" class="graph" transform="scale(1 1) rotate(0) translate(4 1197.93)">
<g id="a_graph0"><a xlink:title=" ">
<polygon fill="white" stroke="none" points="-4,4 -4,-1197.93 619.71,-1197.93 619.71,4 -4,4"/>
</a>
</g>
<!-- 89 -->
<g id="node1" class="node">
<title>89</title>
<g id="a_node1"><a xlink:title="/Users/mps/projects/AI&#45;PROJECTS/mlx&#45;harmony/src/mlx_harmony/generate_standalone.py">
<polygon fill="#0d2279" stroke="#0d2279" points="203.92,-528.97 0,-528.97 0,-474.97 203.92,-474.97 203.92,-528.97"/>
<text xml:space="preserve" text-anchor="middle" x="101.96" y="-516.97" font-family="Arial" font-size="10.00" fill="#ffffff">generate_standalone:79:_prefill_kv_cache</text>
<text xml:space="preserve" text-anchor="middle" x="101.96" y="-505.47" font-family="Arial" font-size="10.00" fill="#ffffff">4.84%</text>
<text xml:space="preserve" text-anchor="middle" x="101.96" y="-493.97" font-family="Arial" font-size="10.00" fill="#ffffff">(4.83%)</text>
<text xml:space="preserve" text-anchor="middle" x="101.96" y="-482.47" font-family="Arial" font-size="10.00" fill="#ffffff">20×</text>
</a>
</g>
</g>
<!-- 119 -->
<g id="node2" class="node">
<title>119</title>
<g id="a_node2"><a xlink:title="/Users/mps/projects/AI&#45;PROJECTS/mlx&#45;harmony/src/mlx_harmony/chat_turn.py">
<polygon fill="#62c608" stroke="#62c608" points="344,-1098.93 207.92,-1098.93 207.92,-1044.94 344,-1044.94 344,-1098.93"/>
<text xml:space="preserve" text-anchor="middle" x="275.96" y="-1086.93" font-family="Arial" font-size="10.00" fill="#ffffff">chat_turn:17:run_chat_turn</text>
<text xml:space="preserve" text-anchor="middle" x="275.96" y="-1075.43" font-family="Arial" font-size="10.00" fill="#ffffff">61.86%</text>
<text xml:space="preserve" text-anchor="middle" x="275.96" y="-1063.93" font-family="Arial" font-size="10.00" fill="#ffffff">(0.00%)</text>
<text xml:space="preserve" text-anchor="middle" x="275.96" y="-1052.43" font-family="Arial" font-size="10.00" fill="#ffffff">20×</text>
</a>
</g>
</g>
<!-- 241 -->
<g id="node3" class="node">
<title>241</title>
<g id="a_node3"><a xlink:title="/Users/mps/projects/AI&#45;PROJECTS/mlx&#45;harmony/src/mlx_harmony/chat_attempt.py">
<polygon fill="#61c608" stroke="#61c608" points="372.3,-1003.94 175.62,-1003.94 175.62,-949.94 372.3,-949.94 372.3,-1003.94"/>
<text xml:space="preserve" text-anchor="middle" x="273.96" y="-991.94" font-family="Arial" font-size="10.00" fill="#ffffff">chat_attempt:15:run_generation_attempt</text>
<text xml:space="preserve" text-anchor="middle" x="273.96" y="-980.44" font-family="Arial" font-size="10.00" fill="#ffffff">61.66%</text>
<text xml:space="preserve" text-anchor="middle" x="273.96" y="-968.94" font-family="Arial" font-size="10.00" fill="#ffffff">(0.00%)</text>
<text xml:space="preserve" text-anchor="middle" x="273.96" y="-957.44" font-family="Arial" font-size="10.00" fill="#ffffff">20×</text>
</a>
</g>
</g>
<!-- 119&#45;&gt;241 -->
<g id="edge1" class="edge">
<title>119&#45;&gt;241</title>
<path fill="none" stroke="#61c608" stroke-width="2.47" d="M275.39,-1044.53C275.2,-1035.6 274.98,-1025.44 274.77,-1015.8"/>
<polygon fill="#61c608" stroke="#61c608" stroke-width="2.47" points="277.54,-1015.98 274.61,-1008.14 272.01,-1016.1 277.54,-1015.98"/>
<text xml:space="preserve" text-anchor="middle" x="292.15" y="-1027.94" font-family="Arial" font-size="10.00" fill="#61c608">61.66%</text>
<text xml:space="preserve" text-anchor="middle" x="292.15" y="-1016.44" font-family="Arial" font-size="10.00" fill="#61c608">20×</text>
</g>
<!-- 1701 -->
<g id="node11" class="node">
<title>1701</title>
<g id="a_node11"><a xlink:title="/Users/mps/projects/AI&#45;PROJECTS/mlx&#45;harmony/src/mlx_harmony/chat_adapters.py">
<polygon fill="#5fc608" stroke="#5fc608" points="337.27,-908.94 210.65,-908.94 210.65,-854.95 337.27,-854.95 337.27,-908.94"/>
<text xml:space="preserve" text-anchor="middle" x="273.96" y="-896.94" font-family="Arial" font-size="10.00" fill="#ffffff">chat_adapters:52:stream</text>
<text xml:space="preserve" text-anchor="middle" x="273.96" y="-885.44" font-family="Arial" font-size="10.00" fill="#ffffff">61.48%</text>
<text xml:space="preserve" text-anchor="middle" x="273.96" y="-873.95" font-family="Arial" font-size="10.00" fill="#ffffff">(0.00%)</text>
<text xml:space="preserve" text-anchor="middle" x="273.96" y="-862.45" font-family="Arial" font-size="10.00" fill="#ffffff">20×</text>
</a>
</g>
</g>
<!-- 241&#45;&gt;1701 -->
<g id="edge6" class="edge">
<title>241&#45;&gt;1701</title>
<path fill="none" stroke="#5fc608" stroke-width="2.46" d="M273.96,-949.54C273.96,-940.61 273.96,-930.45 273.96,-920.8"/>
<polygon fill="#5fc608" stroke="#5fc608" stroke-width="2.46" points="276.69,-920.93 273.96,-913.13 271.23,-920.93 276.69,-920.93"/>
<text xml:space="preserve" text-anchor="middle" x="290.92" y="-932.94" font-family="Arial" font-size="10.00" fill="#5fc608">61.48%</text>
<text xml:space="preserve" text-anchor="middle" x="290.92" y="-921.44" font-family="Arial" font-size="10.00" fill="#5fc608">20×</text>
</g>
<!-- 127 -->
<g id="node4" class="node">
<title>127</title>
<g id="a_node4"><a xlink:title="/Users/mps/projects/AI&#45;PROJECTS/mlx&#45;harmony/src/mlx_harmony/chat.py">
<polygon fill="#ff0000" stroke="#ff0000" points="392.59,-1193.93 319.33,-1193.93 319.33,-1139.93 392.59,-1139.93 392.59,-1193.93"/>
<text xml:space="preserve" text-anchor="middle" x="355.96" y="-1181.93" font-family="Arial" font-size="10.00" fill="#ffffff">chat:75:main</text>
<text xml:space="preserve" text-anchor="middle" x="355.96" y="-1170.43" font-family="Arial" font-size="10.00" fill="#ffffff">100.00%</text>
<text xml:space="preserve" text-anchor="middle" x="355.96" y="-1158.93" font-family="Arial" font-size="10.00" fill="#ffffff">(0.00%)</text>
<text xml:space="preserve" text-anchor="middle" x="355.96" y="-1147.43" font-family="Arial" font-size="10.00" fill="#ffffff">1×</text>
</a>
</g>
</g>
<!-- 127&#45;&gt;119 -->
<g id="edge2" class="edge">
<title>127&#45;&gt;119</title>
<path fill="none" stroke="#62c608" stroke-width="2.47" d="M333.25,-1139.53C324.8,-1129.71 315.08,-1118.42 306.08,-1107.95"/>
<polygon fill="#62c608" stroke="#62c608" stroke-width="2.47" points="308.41,-1106.42 301.16,-1102.23 304.22,-1110.03 308.41,-1106.42"/>
<text xml:space="preserve" text-anchor="middle" x="342.43" y="-1122.93" font-family="Arial" font-size="10.00" fill="#62c608">61.86%</text>
<text xml:space="preserve" text-anchor="middle" x="342.43" y="-1111.43" font-family="Arial" font-size="10.00" fill="#62c608">20×</text>
</g>
<!-- 699 -->
<g id="node5" class="node">
<title>699</title>
<g id="a_node5"><a xlink:title="/Users/mps/projects/AI&#45;PROJECTS/mlx&#45;harmony/src/mlx_harmony/chat_bootstrap.py">
<polygon fill="#0ba554" stroke="#0ba554" points="518.45,-1098.93 353.46,-1098.93 353.46,-1044.94 518.45,-1044.94 518.45,-1098.93"/>
<text xml:space="preserve" text-anchor="middle" x="435.96" y="-1086.93" font-family="Arial" font-size="10.00" fill="#ffffff">chat_bootstrap:47:bootstrap_chat</text>
<text xml:space="preserve" text-anchor="middle" x="435.96" y="-1075.43" font-family="Arial" font-size="10.00" fill="#ffffff">38.13%</text>
<text xml:space="preserve" text-anchor="middle" x="435.96" y="-1063.93" font-family="Arial" font-size="10.00" fill="#ffffff">(0.00%)</text>
<text xml:space="preserve" text-anchor="middle" x="435.96" y="-1052.43" font-family="Arial" font-size="10.00" fill="#ffffff">1×</text>
</a>
</g>
</g>
<!-- 127&#45;&gt;699 -->
<g id="edge3" class="edge">
<title>127&#45;&gt;699</title>
<path fill="none" stroke="#0ba554" stroke-width="1.53" d="M378.67,-1139.53C387.7,-1129.02 398.2,-1116.83 407.72,-1105.76"/>
<polygon fill="#0ba554" stroke="#0ba554" stroke-width="1.53" points="409.28,-1107.27 411.68,-1101.15 405.99,-1104.44 409.28,-1107.27"/>
<text xml:space="preserve" text-anchor="middle" x="422.43" y="-1122.93" font-family="Arial" font-size="10.00" fill="#0ba554">38.13%</text>
<text xml:space="preserve" text-anchor="middle" x="422.43" y="-1111.43" font-family="Arial" font-size="10.00" fill="#0ba554">1×</text>
</g>
<!-- 1117 -->
<g id="node13" class="node">
<title>1117</title>
<g id="a_node13"><a xlink:title="/Users/mps/projects/AI&#45;PROJECTS/mlx&#45;harmony/src/mlx_harmony/generator.py">
<polygon fill="#0ba554" stroke="#0ba554" points="492.22,-1003.94 381.7,-1003.94 381.7,-949.94 492.22,-949.94 492.22,-1003.94"/>
<text xml:space="preserve" text-anchor="middle" x="436.96" y="-991.94" font-family="Arial" font-size="10.00" fill="#ffffff">generator:30:__init__</text>
<text xml:space="preserve" text-anchor="middle" x="436.96" y="-980.44" font-family="Arial" font-size="10.00" fill="#ffffff">38.13%</text>
<text xml:space="preserve" text-anchor="middle" x="436.96" y="-968.94" font-family="Arial" font-size="10.00" fill="#ffffff">(0.00%)</text>
<text xml:space="preserve" text-anchor="middle" x="436.96" y="-957.44" font-family="Arial" font-size="10.00" fill="#ffffff">1×</text>
</a>
</g>
</g>
<!-- 699&#45;&gt;1117 -->
<g id="edge7" class="edge">
<title>699&#45;&gt;1117</title>
<path fill="none" stroke="#0ba554" stroke-width="1.53" d="M436.24,-1044.53C436.35,-1034.62 436.47,-1023.19 436.58,-1012.64"/>
<polygon fill="#0ba554" stroke="#0ba554" stroke-width="1.53" points="438.75,-1012.94 436.65,-1006.72 434.41,-1012.9 438.75,-1012.94"/>
<text xml:space="preserve" text-anchor="middle" x="453.53" y="-1027.94" font-family="Arial" font-size="10.00" fill="#0ba554">38.13%</text>
<text xml:space="preserve" text-anchor="middle" x="453.53" y="-1016.44" font-family="Arial" font-size="10.00" fill="#0ba554">1×</text>
</g>
<!-- 135 -->
<g id="node6" class="node">
<title>135</title>
<g id="a_node6"><a xlink:title="/Users/mps/projects/AI&#45;PROJECTS/mlx&#45;harmony/src/mlx_harmony/chat_generation.py">
<polygon fill="#5fc608" stroke="#5fc608" points="367.85,-813.95 180.06,-813.95 180.06,-759.95 367.85,-759.95 367.85,-813.95"/>
<text xml:space="preserve" text-anchor="middle" x="273.96" y="-801.95" font-family="Arial" font-size="10.00" fill="#ffffff">chat_generation:10:stream_generation</text>
<text xml:space="preserve" text-anchor="middle" x="273.96" y="-790.45" font-family="Arial" font-size="10.00" fill="#ffffff">61.48%</text>
<text xml:space="preserve" text-anchor="middle" x="273.96" y="-778.95" font-family="Arial" font-size="10.00" fill="#ffffff">(0.02%)</text>
<text xml:space="preserve" text-anchor="middle" x="273.96" y="-767.45" font-family="Arial" font-size="10.00" fill="#ffffff">20×</text>
</a>
</g>
</g>
<!-- 152 -->
<g id="node7" class="node">
<title>152</title>
<g id="a_node7"><a xlink:title="/Users/mps/projects/AI&#45;PROJECTS/mlx&#45;harmony/src/mlx_harmony/generator.py">
<polygon fill="#5fc608" stroke="#5fc608" points="334.22,-718.96 213.69,-718.96 213.69,-664.96 334.22,-664.96 334.22,-718.96"/>
<text xml:space="preserve" text-anchor="middle" x="273.96" y="-706.96" font-family="Arial" font-size="10.00" fill="#ffffff">generator:182:generate</text>
<text xml:space="preserve" text-anchor="middle" x="273.96" y="-695.46" font-family="Arial" font-size="10.00" fill="#ffffff">61.46%</text>
<text xml:space="preserve" text-anchor="middle" x="273.96" y="-683.96" font-family="Arial" font-size="10.00" fill="#ffffff">(0.02%)</text>
<text xml:space="preserve" text-anchor="middle" x="273.96" y="-672.46" font-family="Arial" font-size="10.00" fill="#ffffff">9291×</text>
</a>
</g>
</g>
<!-- 135&#45;&gt;152 -->
<g id="edge4" class="edge">
<title>135&#45;&gt;152</title>
<path fill="none" stroke="#5fc608" stroke-width="2.46" d="M273.96,-759.55C273.96,-750.62 273.96,-740.46 273.96,-730.82"/>
<polygon fill="#5fc608" stroke="#5fc608" stroke-width="2.46" points="276.69,-730.95 273.96,-723.15 271.23,-730.95 276.69,-730.95"/>
<text xml:space="preserve" text-anchor="middle" x="290.92" y="-742.95" font-family="Arial" font-size="10.00" fill="#5fc608">61.46%</text>
<text xml:space="preserve" text-anchor="middle" x="290.92" y="-731.45" font-family="Arial" font-size="10.00" fill="#5fc608">9291×</text>
</g>
<!-- 862 -->
<g id="node8" class="node">
<title>862</title>
<g id="a_node8"><a xlink:title="/Users/mps/projects/AI&#45;PROJECTS/mlx&#45;harmony/src/mlx_harmony/generate_standalone.py">
<polygon fill="#5fc608" stroke="#5fc608" points="377.86,-623.96 170.05,-623.96 170.05,-569.96 377.86,-569.96 377.86,-623.96"/>
<text xml:space="preserve" text-anchor="middle" x="273.96" y="-611.96" font-family="Arial" font-size="10.00" fill="#ffffff">generate_standalone:199:stream_generate</text>
<text xml:space="preserve" text-anchor="middle" x="273.96" y="-600.46" font-family="Arial" font-size="10.00" fill="#ffffff">61.44%</text>
<text xml:space="preserve" text-anchor="middle" x="273.96" y="-588.96" font-family="Arial" font-size="10.00" fill="#ffffff">(49.74%)</text>
<text xml:space="preserve" text-anchor="middle" x="273.96" y="-577.46" font-family="Arial" font-size="10.00" fill="#ffffff">9311×</text>
</a>
</g>
</g>
<!-- 152&#45;&gt;862 -->
<g id="edge5" class="edge">
<title>152&#45;&gt;862</title>
<path fill="none" stroke="#5fc608" stroke-width="2.46" d="M273.96,-664.56C273.96,-655.62 273.96,-645.47 273.96,-635.82"/>
<polygon fill="#5fc608" stroke="#5fc608" stroke-width="2.46" points="276.69,-635.95 273.96,-628.15 271.23,-635.95 276.69,-635.95"/>
<text xml:space="preserve" text-anchor="middle" x="290.92" y="-647.96" font-family="Arial" font-size="10.00" fill="#5fc608">61.44%</text>
<text xml:space="preserve" text-anchor="middle" x="290.92" y="-636.46" font-family="Arial" font-size="10.00" fill="#5fc608">9311×</text>
</g>
<!-- 862&#45;&gt;89 -->
<g id="edge8" class="edge">
<title>862&#45;&gt;89</title>
<path fill="none" stroke="#0d2279" stroke-width="0.5" d="M225.13,-569.56C203.07,-557.64 176.97,-543.52 154.48,-531.37"/>
<polygon fill="#0d2279" stroke="#0d2279" stroke-width="0.5" points="155.23,-530.38 151.57,-529.79 154.07,-532.54 155.23,-530.38"/>
<text xml:space="preserve" text-anchor="middle" x="222.6" y="-552.96" font-family="Arial" font-size="10.00" fill="#0d2279">4.84%</text>
<text xml:space="preserve" text-anchor="middle" x="222.6" y="-541.47" font-family="Arial" font-size="10.00" fill="#0d2279">20×</text>
</g>
<!-- 866 -->
<g id="node14" class="node">
<title>866</title>
<g id="a_node14"><a xlink:title="/Users/mps/projects/AI&#45;PROJECTS/mlx&#45;harmony/src/mlx_harmony/sampling.py">
<polygon fill="#0d1475" stroke="#0d1475" points="335.04,-528.97 212.87,-528.97 212.87,-474.97 335.04,-474.97 335.04,-528.97"/>
<text xml:space="preserve" text-anchor="middle" x="273.96" y="-516.97" font-family="Arial" font-size="10.00" fill="#ffffff">sampling:288:processor</text>
<text xml:space="preserve" text-anchor="middle" x="273.96" y="-505.47" font-family="Arial" font-size="10.00" fill="#ffffff">1.76%</text>
<text xml:space="preserve" text-anchor="middle" x="273.96" y="-493.97" font-family="Arial" font-size="10.00" fill="#ffffff">(1.76%)</text>
<text xml:space="preserve" text-anchor="middle" x="273.96" y="-482.47" font-family="Arial" font-size="10.00" fill="#ffffff">9291×</text>
</a>
</g>
</g>
<!-- 862&#45;&gt;866 -->
<g id="edge9" class="edge">
<title>862&#45;&gt;866</title>
<path fill="none" stroke="#0d1475" stroke-width="0.5" d="M273.96,-569.56C273.96,-558.37 273.96,-545.26 273.96,-533.64"/>
<polygon fill="#0d1475" stroke="#0d1475" stroke-width="0.5" points="275.18,-533.69 273.96,-530.19 272.73,-533.69 275.18,-533.69"/>
<text xml:space="preserve" text-anchor="middle" x="288.13" y="-552.96" font-family="Arial" font-size="10.00" fill="#0d1475">1.76%</text>
<text xml:space="preserve" text-anchor="middle" x="288.13" y="-541.47" font-family="Arial" font-size="10.00" fill="#0d1475">9291×</text>
</g>
<!-- 1903 -->
<g id="node15" class="node">
<title>1903</title>
<g id="a_node15"><a xlink:title="/Users/mps/projects/AI&#45;PROJECTS/mlx&#45;harmony/src/mlx_harmony/models/gpt_oss.py">
<polygon fill="#0d2379" stroke="#0d2379" points="454.22,-528.97 343.7,-528.97 343.7,-474.97 454.22,-474.97 454.22,-528.97"/>
<text xml:space="preserve" text-anchor="middle" x="398.96" y="-516.97" font-family="Arial" font-size="10.00" fill="#ffffff">gpt_oss:242:__call__</text>
<text xml:space="preserve" text-anchor="middle" x="398.96" y="-505.47" font-family="Arial" font-size="10.00" fill="#ffffff">5.11%</text>
<text xml:space="preserve" text-anchor="middle" x="398.96" y="-493.97" font-family="Arial" font-size="10.00" fill="#ffffff">(0.01%)</text>
<text xml:space="preserve" text-anchor="middle" x="398.96" y="-482.47" font-family="Arial" font-size="10.00" fill="#ffffff">9311×</text>
</a>
</g>
</g>
<!-- 862&#45;&gt;1903 -->
<g id="edge10" class="edge">
<title>862&#45;&gt;1903</title>
<path fill="none" stroke="#0d2379" stroke-width="0.5" d="M309.44,-569.56C325.28,-557.78 343.98,-543.87 360.18,-531.82"/>
<polygon fill="#0d2379" stroke="#0d2379" stroke-width="0.5" points="360.7,-532.96 362.78,-529.89 359.24,-530.99 360.7,-532.96"/>
<text xml:space="preserve" text-anchor="middle" x="365.51" y="-552.96" font-family="Arial" font-size="10.00" fill="#0d2379">5.10%</text>
<text xml:space="preserve" text-anchor="middle" x="365.51" y="-541.47" font-family="Arial" font-size="10.00" fill="#0d2379">9291×</text>
</g>
<!-- 223 -->
<g id="node9" class="node">
<title>223</title>
<g id="a_node9"><a xlink:title="/Users/unixwzrd/miniconda3/envs/ConnectomeAI/lib/python3.12/site&#45;packages/mlx/nn/layers/quantized.py">
<polygon fill="#0d0f74" stroke="#0d0f74" points="471.39,-148.99 352.53,-148.99 352.53,-94.99 471.39,-94.99 471.39,-148.99"/>
<text xml:space="preserve" text-anchor="middle" x="411.96" y="-136.99" font-family="Arial" font-size="10.00" fill="#ffffff">quantized:242:__call__</text>
<text xml:space="preserve" text-anchor="middle" x="411.96" y="-125.49" font-family="Arial" font-size="10.00" fill="#ffffff">0.65%</text>
<text xml:space="preserve" text-anchor="middle" x="411.96" y="-113.99" font-family="Arial" font-size="10.00" fill="#ffffff">(0.62%)</text>
<text xml:space="preserve" text-anchor="middle" x="411.96" y="-102.49" font-family="Arial" font-size="10.00" fill="#ffffff">1126631×</text>
</a>
</g>
</g>
<!-- 228 -->
<g id="node10" class="node">
<title>228</title>
<g id="a_node10"><a xlink:title="/Users/mps/projects/AI&#45;PROJECTS/mlx&#45;harmony/src/mlx_harmony/models/switch_layers.py">
<polygon fill="#0d1074" stroke="#0d1074" points="612.93,-54 482.98,-54 482.98,0 612.93,0 612.93,-54"/>
<text xml:space="preserve" text-anchor="middle" x="547.96" y="-42" font-family="Arial" font-size="10.00" fill="#ffffff">switch_layers:91:__call__</text>
<text xml:space="preserve" text-anchor="middle" x="547.96" y="-30.5" font-family="Arial" font-size="10.00" fill="#ffffff">0.83%</text>
<text xml:space="preserve" text-anchor="middle" x="547.96" y="-19" font-family="Arial" font-size="10.00" fill="#ffffff">(0.72%)</text>
<text xml:space="preserve" text-anchor="middle" x="547.96" y="-7.5" font-family="Arial" font-size="10.00" fill="#ffffff">670392×</text>
</a>
</g>
</g>
<!-- 1701&#45;&gt;135 -->
<g id="edge12" class="edge">
<title>1701&#45;&gt;135</title>
<path fill="none" stroke="#5fc608" stroke-width="2.46" d="M273.96,-854.55C273.96,-845.61 273.96,-835.45 273.96,-825.81"/>
<polygon fill="#5fc608" stroke="#5fc608" stroke-width="2.46" points="276.69,-825.94 273.96,-818.14 271.23,-825.94 276.69,-825.94"/>
<text xml:space="preserve" text-anchor="middle" x="290.92" y="-837.95" font-family="Arial" font-size="10.00" fill="#5fc608">61.48%</text>
<text xml:space="preserve" text-anchor="middle" x="290.92" y="-826.45" font-family="Arial" font-size="10.00" fill="#5fc608">20×</text>
</g>
<!-- 243 -->
<g id="node12" class="node">
<title>243</title>
<g id="a_node12"><a xlink:title="/Users/mps/projects/AI&#45;PROJECTS/mlx&#45;harmony/src/mlx_harmony/loader.py">
<polygon fill="#0ba555" stroke="#0ba555" points="522.7,-908.94 351.21,-908.94 351.21,-854.95 522.7,-854.95 522.7,-908.94"/>
<text xml:space="preserve" text-anchor="middle" x="436.96" y="-896.94" font-family="Arial" font-size="10.00" fill="#ffffff">loader:211:load_model_standalone</text>
<text xml:space="preserve" text-anchor="middle" x="436.96" y="-885.44" font-family="Arial" font-size="10.00" fill="#ffffff">38.02%</text>
<text xml:space="preserve" text-anchor="middle" x="436.96" y="-873.95" font-family="Arial" font-size="10.00" fill="#ffffff">(37.82%)</text>
<text xml:space="preserve" text-anchor="middle" x="436.96" y="-862.45" font-family="Arial" font-size="10.00" fill="#ffffff">1×</text>
</a>
</g>
</g>
<!-- 1117&#45;&gt;243 -->
<g id="edge11" class="edge">
<title>1117&#45;&gt;243</title>
<path fill="none" stroke="#0ba555" stroke-width="1.52" d="M436.96,-949.54C436.96,-939.63 436.96,-928.2 436.96,-917.64"/>
<polygon fill="#0ba555" stroke="#0ba555" stroke-width="1.52" points="439.13,-917.91 436.96,-911.71 434.79,-917.91 439.13,-917.91"/>
<text xml:space="preserve" text-anchor="middle" x="453.92" y="-932.94" font-family="Arial" font-size="10.00" fill="#0ba555">38.02%</text>
<text xml:space="preserve" text-anchor="middle" x="453.92" y="-921.44" font-family="Arial" font-size="10.00" fill="#0ba555">1×</text>
</g>
<!-- 1900 -->
<g id="node17" class="node">
<title>1900</title>
<g id="a_node17"><a xlink:title="/Users/mps/projects/AI&#45;PROJECTS/mlx&#45;harmony/src/mlx_harmony/models/gpt_oss.py">
<polygon fill="#0d2379" stroke="#0d2379" points="454.22,-433.97 343.7,-433.97 343.7,-379.98 454.22,-379.98 454.22,-433.97"/>
<text xml:space="preserve" text-anchor="middle" x="398.96" y="-421.97" font-family="Arial" font-size="10.00" fill="#ffffff">gpt_oss:208:__call__</text>
<text xml:space="preserve" text-anchor="middle" x="398.96" y="-410.47" font-family="Arial" font-size="10.00" fill="#ffffff">5.09%</text>
<text xml:space="preserve" text-anchor="middle" x="398.96" y="-398.97" font-family="Arial" font-size="10.00" fill="#ffffff">(0.07%)</text>
<text xml:space="preserve" text-anchor="middle" x="398.96" y="-387.48" font-family="Arial" font-size="10.00" fill="#ffffff">9311×</text>
</a>
</g>
</g>
<!-- 1903&#45;&gt;1900 -->
<g id="edge19" class="edge">
<title>1903&#45;&gt;1900</title>
<path fill="none" stroke="#0d2379" stroke-width="0.5" d="M398.96,-474.57C398.96,-463.38 398.96,-450.26 398.96,-438.65"/>
<polygon fill="#0d2379" stroke="#0d2379" stroke-width="0.5" points="400.18,-438.7 398.96,-435.2 397.73,-438.7 400.18,-438.7"/>
<text xml:space="preserve" text-anchor="middle" x="413.13" y="-457.97" font-family="Arial" font-size="10.00" fill="#0d2379">5.09%</text>
<text xml:space="preserve" text-anchor="middle" x="413.13" y="-446.47" font-family="Arial" font-size="10.00" fill="#0d2379">9311×</text>
</g>
<!-- 1896 -->
<g id="node16" class="node">
<title>1896</title>
<g id="a_node16"><a xlink:title="/Users/mps/projects/AI&#45;PROJECTS/mlx&#45;harmony/src/mlx_harmony/models/switch_layers.py">
<polygon fill="#0d1274" stroke="#0d1274" points="615.71,-148.99 480.2,-148.99 480.2,-94.99 615.71,-94.99 615.71,-148.99"/>
<text xml:space="preserve" text-anchor="middle" x="547.96" y="-136.99" font-family="Arial" font-size="10.00" fill="#ffffff">switch_layers:204:__call__</text>
<text xml:space="preserve" text-anchor="middle" x="547.96" y="-125.49" font-family="Arial" font-size="10.00" fill="#ffffff">1.30%</text>
<text xml:space="preserve" text-anchor="middle" x="547.96" y="-113.99" font-family="Arial" font-size="10.00" fill="#ffffff">(0.23%)</text>
<text xml:space="preserve" text-anchor="middle" x="547.96" y="-102.49" font-family="Arial" font-size="10.00" fill="#ffffff">223464×</text>
</a>
</g>
</g>
<!-- 1896&#45;&gt;228 -->
<g id="edge13" class="edge">
<title>1896&#45;&gt;228</title>
<path fill="none" stroke="#0d1074" stroke-width="0.5" d="M547.96,-94.59C547.96,-83.4 547.96,-70.29 547.96,-58.67"/>
<polygon fill="#0d1074" stroke="#0d1074" stroke-width="0.5" points="549.18,-58.72 547.96,-55.22 546.73,-58.72 549.18,-58.72"/>
<text xml:space="preserve" text-anchor="middle" x="567.56" y="-77.99" font-family="Arial" font-size="10.00" fill="#0d1074">0.83%</text>
<text xml:space="preserve" text-anchor="middle" x="567.56" y="-66.5" font-family="Arial" font-size="10.00" fill="#0d1074">670392×</text>
</g>
<!-- 1915 -->
<g id="node18" class="node">
<title>1915</title>
<g id="a_node18"><a xlink:title="/Users/mps/projects/AI&#45;PROJECTS/mlx&#45;harmony/src/mlx_harmony/models/gpt_oss.py">
<polygon fill="#0d2279" stroke="#0d2279" points="454.22,-338.98 343.7,-338.98 343.7,-284.98 454.22,-284.98 454.22,-338.98"/>
<text xml:space="preserve" text-anchor="middle" x="398.96" y="-326.98" font-family="Arial" font-size="10.00" fill="#ffffff">gpt_oss:178:__call__</text>
<text xml:space="preserve" text-anchor="middle" x="398.96" y="-315.48" font-family="Arial" font-size="10.00" fill="#ffffff">4.97%</text>
<text xml:space="preserve" text-anchor="middle" x="398.96" y="-303.98" font-family="Arial" font-size="10.00" fill="#ffffff">(0.20%)</text>
<text xml:space="preserve" text-anchor="middle" x="398.96" y="-292.48" font-family="Arial" font-size="10.00" fill="#ffffff">223464×</text>
</a>
</g>
</g>
<!-- 1900&#45;&gt;1915 -->
<g id="edge14" class="edge">
<title>1900&#45;&gt;1915</title>
<path fill="none" stroke="#0d2279" stroke-width="0.5" d="M398.96,-379.57C398.96,-368.38 398.96,-355.27 398.96,-343.65"/>
<polygon fill="#0d2279" stroke="#0d2279" stroke-width="0.5" points="400.18,-343.7 398.96,-340.2 397.73,-343.7 400.18,-343.7"/>
<text xml:space="preserve" text-anchor="middle" x="418.56" y="-362.98" font-family="Arial" font-size="10.00" fill="#0d2279">4.97%</text>
<text xml:space="preserve" text-anchor="middle" x="418.56" y="-351.48" font-family="Arial" font-size="10.00" fill="#0d2279">223464×</text>
</g>
<!-- 1901 -->
<g id="node19" class="node">
<title>1901</title>
<g id="a_node19"><a xlink:title="/Users/mps/projects/AI&#45;PROJECTS/mlx&#45;harmony/src/mlx_harmony/models/gpt_oss.py">
<polygon fill="#0d1876" stroke="#0d1876" points="394.84,-243.98 285.07,-243.98 285.07,-189.99 394.84,-189.99 394.84,-243.98"/>
<text xml:space="preserve" text-anchor="middle" x="339.96" y="-231.98" font-family="Arial" font-size="10.00" fill="#ffffff">gpt_oss:114:__call__</text>
<text xml:space="preserve" text-anchor="middle" x="339.96" y="-220.49" font-family="Arial" font-size="10.00" fill="#ffffff">2.70%</text>
<text xml:space="preserve" text-anchor="middle" x="339.96" y="-208.99" font-family="Arial" font-size="10.00" fill="#ffffff">(0.54%)</text>
<text xml:space="preserve" text-anchor="middle" x="339.96" y="-197.49" font-family="Arial" font-size="10.00" fill="#ffffff">223464×</text>
</a>
</g>
</g>
<!-- 1915&#45;&gt;1901 -->
<g id="edge20" class="edge">
<title>1915&#45;&gt;1901</title>
<path fill="none" stroke="#0d1876" stroke-width="0.5" d="M382.21,-284.58C374.92,-273.1 366.35,-259.58 358.84,-247.74"/>
<polygon fill="#0d1876" stroke="#0d1876" stroke-width="0.5" points="360.06,-247.39 357.15,-245.09 357.99,-248.7 360.06,-247.39"/>
<text xml:space="preserve" text-anchor="middle" x="396.08" y="-267.98" font-family="Arial" font-size="10.00" fill="#0d1876">2.70%</text>
<text xml:space="preserve" text-anchor="middle" x="396.08" y="-256.48" font-family="Arial" font-size="10.00" fill="#0d1876">223464×</text>
</g>
<!-- 1902 -->
<g id="node21" class="node">
<title>1902</title>
<g id="a_node21"><a xlink:title="/Users/mps/projects/AI&#45;PROJECTS/mlx&#45;harmony/src/mlx_harmony/models/gpt_oss.py">
<polygon fill="#0d1575" stroke="#0d1575" points="514.22,-243.98 403.7,-243.98 403.7,-189.99 514.22,-189.99 514.22,-243.98"/>
<text xml:space="preserve" text-anchor="middle" x="458.96" y="-231.98" font-family="Arial" font-size="10.00" fill="#ffffff">gpt_oss:156:__call__</text>
<text xml:space="preserve" text-anchor="middle" x="458.96" y="-220.49" font-family="Arial" font-size="10.00" fill="#ffffff">1.89%</text>
<text xml:space="preserve" text-anchor="middle" x="458.96" y="-208.99" font-family="Arial" font-size="10.00" fill="#ffffff">(0.24%)</text>
<text xml:space="preserve" text-anchor="middle" x="458.96" y="-197.49" font-family="Arial" font-size="10.00" fill="#ffffff">223464×</text>
</a>
</g>
</g>
<!-- 1915&#45;&gt;1902 -->
<g id="edge21" class="edge">
<title>1915&#45;&gt;1902</title>
<path fill="none" stroke="#0d1575" stroke-width="0.5" d="M415.99,-284.58C423.4,-273.1 432.12,-259.58 439.76,-247.74"/>
<polygon fill="#0d1575" stroke="#0d1575" stroke-width="0.5" points="440.6,-248.69 441.47,-245.09 438.54,-247.36 440.6,-248.69"/>
<text xml:space="preserve" text-anchor="middle" x="455.7" y="-267.98" font-family="Arial" font-size="10.00" fill="#0d1575">1.89%</text>
<text xml:space="preserve" text-anchor="middle" x="455.7" y="-256.48" font-family="Arial" font-size="10.00" fill="#0d1575">223464×</text>
</g>
<!-- 1901&#45;&gt;223 -->
<g id="edge15" class="edge">
<title>1901&#45;&gt;223</title>
<path fill="none" stroke="#0d0f73" stroke-width="0.5" d="M360.4,-189.59C369.29,-178.1 379.75,-164.59 388.92,-152.75"/>
<polygon fill="#0d0f73" stroke="#0d0f73" stroke-width="0.5" points="389.83,-153.57 391,-150.06 387.89,-152.07 389.83,-153.57"/>
<text xml:space="preserve" text-anchor="middle" x="404.13" y="-172.99" font-family="Arial" font-size="10.00" fill="#0d0f73">0.52%</text>
<text xml:space="preserve" text-anchor="middle" x="404.13" y="-161.49" font-family="Arial" font-size="10.00" fill="#0d0f73">893856×</text>
</g>
<!-- 1916 -->
<g id="node20" class="node">
<title>1916</title>
<g id="a_node20"><a xlink:title="/Users/mps/projects/AI&#45;PROJECTS/mlx&#45;harmony/src/mlx_harmony/models/rope_utils.py">
<polygon fill="#0d1174" stroke="#0d1174" points="343.38,-148.99 224.53,-148.99 224.53,-94.99 343.38,-94.99 343.38,-148.99"/>
<text xml:space="preserve" text-anchor="middle" x="283.96" y="-136.99" font-family="Arial" font-size="10.00" fill="#ffffff">rope_utils:164:__call__</text>
<text xml:space="preserve" text-anchor="middle" x="283.96" y="-125.49" font-family="Arial" font-size="10.00" fill="#ffffff">1.04%</text>
<text xml:space="preserve" text-anchor="middle" x="283.96" y="-113.99" font-family="Arial" font-size="10.00" fill="#ffffff">(1.00%)</text>
<text xml:space="preserve" text-anchor="middle" x="283.96" y="-102.49" font-family="Arial" font-size="10.00" fill="#ffffff">446928×</text>
</a>
</g>
</g>
<!-- 1901&#45;&gt;1916 -->
<g id="edge16" class="edge">
<title>1901&#45;&gt;1916</title>
<path fill="none" stroke="#0d1174" stroke-width="0.5" d="M323.96,-189.62C322.2,-186.71 320.44,-183.79 318.75,-180.99 313.19,-171.76 307.14,-161.7 301.68,-152.59"/>
<polygon fill="#0d1174" stroke="#0d1174" stroke-width="0.5" points="302.93,-152.3 300.08,-149.93 300.83,-153.56 302.93,-152.3"/>
<text xml:space="preserve" text-anchor="middle" x="338.35" y="-172.99" font-family="Arial" font-size="10.00" fill="#0d1174">1.04%</text>
<text xml:space="preserve" text-anchor="middle" x="338.35" y="-161.49" font-family="Arial" font-size="10.00" fill="#0d1174">446928×</text>
</g>
<!-- 1902&#45;&gt;223 -->
<g id="edge17" class="edge">
<title>1902&#45;&gt;223</title>
<path fill="none" stroke="#0d0d73" stroke-width="0.5" d="M445.61,-189.59C439.86,-178.2 433.1,-164.82 427.15,-153.05"/>
<polygon fill="#0d0d73" stroke="#0d0d73" stroke-width="0.5" points="428.35,-152.7 425.67,-150.13 426.16,-153.81 428.35,-152.7"/>
<text xml:space="preserve" text-anchor="middle" x="460.65" y="-172.99" font-family="Arial" font-size="10.00" fill="#0d0d73">0.13%</text>
<text xml:space="preserve" text-anchor="middle" x="460.65" y="-161.49" font-family="Arial" font-size="10.00" fill="#0d0d73">223464×</text>
</g>
<!-- 1902&#45;&gt;1896 -->
<g id="edge18" class="edge">
<title>1902&#45;&gt;1896</title>
<path fill="none" stroke="#0d1274" stroke-width="0.5" d="M484.22,-189.59C495.31,-178 508.37,-164.36 519.77,-152.45"/>
<polygon fill="#0d1274" stroke="#0d1274" stroke-width="0.5" points="520.57,-153.38 522.11,-150 518.8,-151.69 520.57,-153.38"/>
<text xml:space="preserve" text-anchor="middle" x="533.65" y="-172.99" font-family="Arial" font-size="10.00" fill="#0d1274">1.30%</text>
<text xml:space="preserve" text-anchor="middle" x="533.65" y="-161.49" font-family="Arial" font-size="10.00" fill="#0d1274">223464×</text>
</g>
</g>
</svg>
